/* C:\Data\Synced to Nextcloud\Hobbyprojecten\ESP32-T-Display\Regenboogpiano\include\furelise.mid (2021-11-17 14:35:14)
   StartOffset(h): 00000000, EndOffset(h): 00002B40, Length(h): 00002B41 */

const unsigned char mid_h[] PROGMEM = {
	0x4D, 0x54, 0x68, 0x64, 0x00, 0x00, 0x00, 0x06, 0x00, 0x01, 0x00, 0x04,
	0x03, 0xC0, 0x4D, 0x54, 0x72, 0x6B, 0x00, 0x00, 0x00, 0x33, 0x00, 0xFF,
	0x7F, 0x08, 0x05, 0x0F, 0x12, 0x00, 0x00, 0x7F, 0x7F, 0x00, 0x00, 0xFF,
	0x7F, 0x0D, 0x05, 0x0F, 0x1C, 0x32, 0x30, 0x30, 0x35, 0x2E, 0x31, 0x32,
	0x2E, 0x30, 0x32, 0x00, 0xFF, 0x03, 0x07, 0x54, 0x72, 0x61, 0x63, 0x6B,
	0x20, 0x30, 0x00, 0xFF, 0x51, 0x03, 0x0D, 0x14, 0x37, 0x00, 0xFF, 0x2F,
	0x00, 0x4D, 0x54, 0x72, 0x6B, 0x00, 0x00, 0x2A, 0x40, 0x00, 0xC0, 0x00,
	0x00, 0xFF, 0x7F, 0x05, 0x05, 0x0F, 0x09, 0x40, 0x48, 0x00, 0xFF, 0x02,
	0x14, 0x32, 0x30, 0x30, 0x36, 0x20, 0x62, 0x79, 0x20, 0x66, 0x6F, 0x72,
	0x65, 0x6C, 0x69, 0x73, 0x65, 0x2E, 0x63, 0x6F, 0x6D, 0x00, 0xFF, 0x04,
	0x05, 0x50, 0x69, 0x61, 0x6E, 0x6F, 0x00, 0xFF, 0x03, 0x09, 0x46, 0xFC,
	0x72, 0x20, 0x45, 0x6C, 0x69, 0x73, 0x65, 0x00, 0xFF, 0x7F, 0x0F, 0x05,
	0x0F, 0x06, 0x47, 0x65, 0x6E, 0x65, 0x72, 0x61, 0x6C, 0x20, 0x4D, 0x49,
	0x44, 0x49, 0x00, 0xFF, 0x58, 0x04, 0x03, 0x03, 0x0C, 0x08, 0x00, 0xFF,
	0x20, 0x01, 0x00, 0x87, 0x40, 0x90, 0x4C, 0x47, 0x81, 0x70, 0x80, 0x4C,
	0x00, 0x00, 0x90, 0x4B, 0x26, 0x81, 0x70, 0x80, 0x4B, 0x00, 0x00, 0x90,
	0x4C, 0x39, 0x81, 0x70, 0x80, 0x4C, 0x00, 0x00, 0x90, 0x4B, 0x46, 0x81,
	0x70, 0x80, 0x4B, 0x00, 0x00, 0x90, 0x4C, 0x4C, 0x81, 0x70, 0x80, 0x4C,
	0x00, 0x00, 0x90, 0x47, 0x4C, 0x81, 0x70, 0x80, 0x47, 0x00, 0x00, 0x90,
	0x4A, 0x4C, 0x81, 0x70, 0x80, 0x4A, 0x00, 0x00, 0x90, 0x48, 0x53, 0x81,
	0x70, 0x80, 0x48, 0x00, 0x00, 0x90, 0x45, 0x59, 0x00, 0xFF, 0x7F, 0x04,
	0x05, 0x0F, 0x0F, 0x02, 0x00, 0x90, 0x2D, 0x40, 0x81, 0x70, 0x80, 0x2D,
	0x00, 0x00, 0x90, 0x34, 0x40, 0x81, 0x70, 0x80, 0x34, 0x00, 0x00, 0x90,
	0x39, 0x46, 0x81, 0x70, 0x80, 0x45, 0x00, 0x00, 0x80, 0x39, 0x00, 0x00,
	0x90, 0x3C, 0x4C, 0x81, 0x70, 0x80, 0x3C, 0x00, 0x00, 0x90, 0x40, 0x4C,
	0x81, 0x70, 0x80, 0x40, 0x00, 0x00, 0x90, 0x45, 0x4C, 0x81, 0x70, 0x80,
	0x45, 0x00, 0x00, 0x90, 0x47, 0x53, 0x00, 0xFF, 0x7F, 0x04, 0x05, 0x0F,
	0x0F, 0x02, 0x00, 0x90, 0x28, 0x40, 0x81, 0x70, 0x80, 0x28, 0x00, 0x00,
	0x90, 0x34, 0x40, 0x81, 0x70, 0x80, 0x34, 0x00, 0x00, 0x90, 0x38, 0x46,
	0x81, 0x70, 0x80, 0x47, 0x00, 0x00, 0x80, 0x38, 0x00, 0x00, 0x90, 0x40,
	0x4C, 0x81, 0x70, 0x80, 0x40, 0x00, 0x00, 0x90, 0x44, 0x4C, 0x81, 0x70,
	0x80, 0x44, 0x00, 0x00, 0x90, 0x47, 0x4C, 0x81, 0x70, 0x80, 0x47, 0x00,
	0x00, 0x90, 0x48, 0x53, 0x00, 0x90, 0x2D, 0x40, 0x81, 0x70, 0x80, 0x2D,
	0x00, 0x00, 0x90, 0x34, 0x46, 0x81, 0x70, 0x80, 0x34, 0x00, 0x00, 0x90,
	0x39, 0x4C, 0x81, 0x70, 0x80, 0x48, 0x00, 0x00, 0x80, 0x39, 0x00, 0x00,
	0x90, 0x40, 0x4C, 0x81, 0x70, 0x80, 0x40, 0x00, 0x00, 0x90, 0x4C, 0x4C,
	0x81, 0x70, 0x80, 0x4C, 0x00, 0x00, 0x90, 0x4B, 0x40, 0x81, 0x70, 0x80,
	0x4B, 0x00, 0x00, 0x90, 0x4C, 0x4C, 0x81, 0x70, 0x80, 0x4C, 0x00, 0x00,
	0x90, 0x4B, 0x46, 0x81, 0x70, 0x80, 0x4B, 0x00, 0x00, 0x90, 0x4C, 0x4C,
	0x81, 0x70, 0x80, 0x4C, 0x00, 0x00, 0x90, 0x47, 0x4C, 0x81, 0x70, 0x80,
	0x47, 0x00, 0x00, 0x90, 0x4A, 0x4C, 0x81, 0x70, 0x80, 0x4A, 0x00, 0x00,
	0x90, 0x48, 0x4C, 0x81, 0x70, 0x80, 0x48, 0x00, 0x00, 0x90, 0x45, 0x53,
	0x00, 0xFF, 0x7F, 0x04, 0x05, 0x0F, 0x0F, 0x02, 0x00, 0x90, 0x2D, 0x39,
	0x81, 0x70, 0x80, 0x2D, 0x00, 0x00, 0x90, 0x34, 0x40, 0x81, 0x70, 0x80,
	0x34, 0x00, 0x00, 0x90, 0x39, 0x46, 0x81, 0x70, 0x80, 0x45, 0x00, 0x00,
	0x80, 0x39, 0x00, 0x00, 0x90, 0x3C, 0x4C, 0x81, 0x70, 0x80, 0x3C, 0x00,
	0x00, 0x90, 0x40, 0x4C, 0x81, 0x70, 0x80, 0x40, 0x00, 0x00, 0x90, 0x45,
	0x4C, 0x81, 0x70, 0x80, 0x45, 0x00, 0x00, 0x90, 0x47, 0x53, 0x00, 0xFF,
	0x7F, 0x04, 0x05, 0x0F, 0x0F, 0x02, 0x00, 0x90, 0x28, 0x40, 0x81, 0x70,
	0x80, 0x28, 0x00, 0x00, 0x90, 0x34, 0x46, 0x81, 0x70, 0x80, 0x34, 0x00,
	0x00, 0x90, 0x38, 0x4C, 0x81, 0x70, 0x80, 0x47, 0x00, 0x00, 0x80, 0x38,
	0x00, 0x00, 0x90, 0x40, 0x4C, 0x81, 0x70, 0x80, 0x40, 0x00, 0x00, 0x90,
	0x48, 0x4C, 0x81, 0x70, 0x80, 0x48, 0x00, 0x00, 0x90, 0x47, 0x4C, 0x81,
	0x70, 0x80, 0x47, 0x00, 0x00, 0x90, 0x45, 0x53, 0x00, 0x90, 0x2D, 0x40,
	0x81, 0x70, 0x80, 0x2D, 0x00, 0x00, 0x90, 0x34, 0x46, 0x81, 0x70, 0x80,
	0x34, 0x00, 0x00, 0x90, 0x39, 0x46, 0x81, 0x70, 0x80, 0x45, 0x00, 0x00,
	0x80, 0x39, 0x00, 0x81, 0x70, 0x90, 0x4C, 0x40, 0x81, 0x70, 0x80, 0x4C,
	0x00, 0x00, 0x90, 0x4B, 0x46, 0x81, 0x70, 0x80, 0x4B, 0x00, 0x00, 0x90,
	0x4C, 0x46, 0x81, 0x70, 0x80, 0x4C, 0x00, 0x00, 0x90, 0x4B, 0x40, 0x81,
	0x70, 0x80, 0x4B, 0x00, 0x00, 0x90, 0x4C, 0x4C, 0x81, 0x70, 0x80, 0x4C,
	0x00, 0x00, 0x90, 0x47, 0x4C, 0x81, 0x70, 0x80, 0x47, 0x00, 0x00, 0x90,
	0x4A, 0x4C, 0x81, 0x70, 0x80, 0x4A, 0x00, 0x00, 0x90, 0x48, 0x4C, 0x81,
	0x70, 0x80, 0x48, 0x00, 0x00, 0x90, 0x45, 0x4C, 0x00, 0x90, 0x2D, 0x4C,
	0x81, 0x70, 0x80, 0x2D, 0x00, 0x00, 0x90, 0x34, 0x4C, 0x81, 0x70, 0x80,
	0x34, 0x00, 0x00, 0x90, 0x39, 0x4C, 0x81, 0x70, 0x80, 0x39, 0x00, 0x00,
	0x80, 0x45, 0x00, 0x00, 0x90, 0x3C, 0x4C, 0x81, 0x70, 0x80, 0x3C, 0x00,
	0x00, 0x90, 0x40, 0x4C, 0x81, 0x70, 0x80, 0x40, 0x00, 0x00, 0x90, 0x45,
	0x4C, 0x81, 0x70, 0x80, 0x45, 0x00, 0x00, 0x90, 0x47, 0x53, 0x00, 0x90,
	0x28, 0x40, 0x81, 0x70, 0x80, 0x28, 0x00, 0x00, 0x90, 0x34, 0x46, 0x81,
	0x70, 0x80, 0x34, 0x00, 0x00, 0x90, 0x38, 0x4C, 0x81, 0x70, 0x80, 0x47,
	0x00, 0x00, 0x80, 0x38, 0x00, 0x00, 0x90, 0x40, 0x4C, 0x81, 0x70, 0x80,
	0x40, 0x00, 0x00, 0x90, 0x44, 0x4C, 0x81, 0x70, 0x80, 0x44, 0x00, 0x00,
	0x90, 0x47, 0x4C, 0x81, 0x70, 0x80, 0x47, 0x00, 0x00, 0x90, 0x48, 0x4C,
	0x00, 0x90, 0x2D, 0x40, 0x81, 0x70, 0x80, 0x2D, 0x00, 0x00, 0x90, 0x34,
	0x4C, 0x81, 0x70, 0x80, 0x34, 0x00, 0x00, 0x80, 0x48, 0x00, 0x00, 0x90,
	0x39, 0x4C, 0x81, 0x70, 0x80, 0x39, 0x00, 0x00, 0x90, 0x40, 0x4C, 0x81,
	0x70, 0x80, 0x40, 0x00, 0x00, 0x90, 0x4C, 0x4C, 0x81, 0x70, 0x80, 0x4C,
	0x00, 0x00, 0x90, 0x4B, 0x46, 0x81, 0x70, 0x80, 0x4B, 0x00, 0x00, 0x90,
	0x4C, 0x4C, 0x81, 0x70, 0x80, 0x4C, 0x00, 0x00, 0x90, 0x4B, 0x46, 0x81,
	0x70, 0x80, 0x4B, 0x00, 0x00, 0x90, 0x4C, 0x4C, 0x81, 0x70, 0x80, 0x4C,
	0x00, 0x00, 0x90, 0x47, 0x4C, 0x81, 0x70, 0x80, 0x47, 0x00, 0x00, 0x90,
	0x4A, 0x4C, 0x81, 0x70, 0x80, 0x4A, 0x00, 0x00, 0x90, 0x48, 0x4C, 0x81,
	0x70, 0x80, 0x48, 0x00, 0x00, 0x90, 0x45, 0x4C, 0x00, 0x90, 0x2D, 0x46,
	0x81, 0x70, 0x80, 0x2D, 0x00, 0x00, 0x90, 0x34, 0x4C, 0x81, 0x70, 0x80,
	0x34, 0x00, 0x00, 0x80, 0x45, 0x00, 0x00, 0x90, 0x39, 0x4C, 0x81, 0x70,
	0x80, 0x39, 0x00, 0x00, 0x90, 0x3C, 0x4C, 0x81, 0x70, 0x80, 0x3C, 0x00,
	0x00, 0x90, 0x40, 0x4C, 0x81, 0x70, 0x80, 0x40, 0x00, 0x00, 0x90, 0x45,
	0x4C, 0x81, 0x70, 0x80, 0x45, 0x00, 0x00, 0x90, 0x47, 0x4C, 0x00, 0x90,
	0x28, 0x40, 0x81, 0x70, 0x80, 0x28, 0x00, 0x00, 0x90, 0x34, 0x4C, 0x81,
	0x70, 0x80, 0x34, 0x00, 0x00, 0x80, 0x47, 0x00, 0x00, 0x90, 0x38, 0x4C,
	0x81, 0x70, 0x80, 0x38, 0x00, 0x00, 0x90, 0x40, 0x4C, 0x81, 0x70, 0x80,
	0x40, 0x00, 0x00, 0x90, 0x48, 0x4C, 0x81, 0x70, 0x80, 0x48, 0x00, 0x00,
	0x90, 0x47, 0x4C, 0x81, 0x70, 0x80, 0x47, 0x00, 0x00, 0x90, 0x45, 0x53,
	0x00, 0x90, 0x2D, 0x4C, 0x81, 0x70, 0x80, 0x2D, 0x00, 0x00, 0x90, 0x34,
	0x4C, 0x81, 0x70, 0x80, 0x45, 0x00, 0x00, 0x80, 0x34, 0x00, 0x00, 0x90,
	0x39, 0x4C, 0x81, 0x70, 0x80, 0x39, 0x00, 0x00, 0x90, 0x47, 0x4C, 0x81,
	0x70, 0x80, 0x47, 0x00, 0x00, 0x90, 0x48, 0x4C, 0x81, 0x70, 0x80, 0x48,
	0x00, 0x00, 0x90, 0x4A, 0x4C, 0x81, 0x70, 0x80, 0x4A, 0x00, 0x00, 0x90,
	0x4C, 0x4C, 0x00, 0xFF, 0x7F, 0x04, 0x05, 0x0F, 0x0F, 0x11, 0x00, 0x90,
	0x30, 0x46, 0x81, 0x70, 0x80, 0x30, 0x00, 0x00, 0x90, 0x37, 0x4C, 0x81,
	0x70, 0x80, 0x37, 0x00, 0x00, 0x90, 0x3C, 0x4C, 0x00, 0xFF, 0x7F, 0x04,
	0x05, 0x0F, 0x0F, 0x08, 0x81, 0x70, 0x80, 0x4C, 0x00, 0x00, 0x80, 0x3C,
	0x00, 0x00, 0x90, 0x43, 0x4C, 0x81, 0x70, 0x80, 0x43, 0x00, 0x00, 0x90,
	0x4D, 0x4C, 0x81, 0x70, 0x80, 0x4D, 0x00, 0x00, 0x90, 0x4C, 0x4C, 0x81,
	0x70, 0x80, 0x4C, 0x00, 0x00, 0x90, 0x4A, 0x4C, 0x00, 0xFF, 0x7F, 0x04,
	0x05, 0x0F, 0x0F, 0x01, 0x00, 0x90, 0x2B, 0x40, 0x81, 0x70, 0x80, 0x2B,
	0x00, 0x00, 0x90, 0x37, 0x4C, 0x81, 0x70, 0x80, 0x37, 0x00, 0x00, 0x90,
	0x3B, 0x4C, 0x81, 0x70, 0x80, 0x4A, 0x00, 0x00, 0x80, 0x3B, 0x00, 0x00,
	0x90, 0x41, 0x4C, 0x81, 0x70, 0x80, 0x41, 0x00, 0x00, 0x90, 0x4C, 0x4C,
	0x81, 0x70, 0x80, 0x4C, 0x00, 0x00, 0x90, 0x4A, 0x4C, 0x81, 0x70, 0x80,
	0x4A, 0x00, 0x00, 0x90, 0x48, 0x4C, 0x00, 0x90, 0x2D, 0x40, 0x81, 0x70,
	0x80, 0x2D, 0x00, 0x00, 0x90, 0x34, 0x4C, 0x81, 0x70, 0x80, 0x34, 0x00,
	0x00, 0x90, 0x39, 0x4C, 0x81, 0x70, 0x80, 0x39, 0x00, 0x00, 0x80, 0x48,
	0x00, 0x00, 0x90, 0x40, 0x4C, 0x81, 0x70, 0x80, 0x40, 0x00, 0x00, 0x90,
	0x4A, 0x4C, 0x81, 0x70, 0x80, 0x4A, 0x00, 0x00, 0x90, 0x48, 0x4C, 0x81,
	0x70, 0x80, 0x48, 0x00, 0x00, 0x90, 0x47, 0x4C, 0x00, 0x90, 0x28, 0x40,
	0x81, 0x70, 0x80, 0x28, 0x00, 0x00, 0x90, 0x34, 0x4C, 0x81, 0x70, 0x80,
	0x34, 0x00, 0x00, 0x80, 0x47, 0x00, 0x00, 0x90, 0x40, 0x4C, 0x00, 0xFF,
	0x7F, 0x04, 0x05, 0x0F, 0x0F, 0x08, 0x81, 0x70, 0x80, 0x40, 0x00, 0x00,
	0x90, 0x40, 0x4C, 0x81, 0x70, 0x80, 0x40, 0x00, 0x00, 0x90, 0x4C, 0x4C,
	0x81, 0x70, 0x80, 0x4C, 0x00, 0x00, 0x90, 0x40, 0x4C, 0x81, 0x70, 0x80,
	0x40, 0x00, 0x00, 0x90, 0x4C, 0x4C, 0x81, 0x70, 0x80, 0x4C, 0x00, 0x00,
	0x90, 0x4C, 0x46, 0x81, 0x70, 0x80, 0x4C, 0x00, 0x00, 0x90, 0x58, 0x40,
	0x81, 0x70, 0x80, 0x58, 0x00, 0x00, 0x90, 0x4B, 0x46, 0x81, 0x70, 0x80,
	0x4B, 0x00, 0x00, 0x90, 0x4C, 0x4C, 0x81, 0x70, 0x80, 0x4C, 0x00, 0x00,
	0x90, 0x4B, 0x4C, 0x81, 0x70, 0x80, 0x4B, 0x00, 0x00, 0x90, 0x4C, 0x4C,
	0x81, 0x70, 0x80, 0x4C, 0x00, 0x00, 0x90, 0x4B, 0x4C, 0x81, 0x70, 0x80,
	0x4B, 0x00, 0x00, 0x90, 0x4C, 0x4C, 0x81, 0x70, 0x80, 0x4C, 0x00, 0x00,
	0x90, 0x47, 0x4C, 0x81, 0x70, 0x80, 0x47, 0x00, 0x00, 0x90, 0x4A, 0x46,
	0x81, 0x70, 0x80, 0x4A, 0x00, 0x00, 0x90, 0x48, 0x4C, 0x81, 0x70, 0x80,
	0x48, 0x00, 0x00, 0x90, 0x45, 0x4C, 0x00, 0x90, 0x2D, 0x40, 0x81, 0x70,
	0x80, 0x2D, 0x00, 0x00, 0x90, 0x34, 0x46, 0x81, 0x70, 0x80, 0x34, 0x00,
	0x00, 0x80, 0x45, 0x00, 0x00, 0x90, 0x39, 0x4C, 0x81, 0x70, 0x80, 0x39,
	0x00, 0x00, 0x90, 0x3C, 0x4C, 0x81, 0x70, 0x80, 0x3C, 0x00, 0x00, 0x90,
	0x40, 0x4C, 0x81, 0x70, 0x80, 0x40, 0x00, 0x00, 0x90, 0x45, 0x4C, 0x81,
	0x70, 0x80, 0x45, 0x00, 0x00, 0x90, 0x47, 0x4C, 0x00, 0x90, 0x28, 0x40,
	0x81, 0x70, 0x80, 0x28, 0x00, 0x00, 0x90, 0x34, 0x46, 0x81, 0x70, 0x80,
	0x34, 0x00, 0x00, 0x80, 0x47, 0x00, 0x00, 0x90, 0x38, 0x4C, 0x81, 0x70,
	0x80, 0x38, 0x00, 0x00, 0x90, 0x40, 0x4C, 0x81, 0x70, 0x80, 0x40, 0x00,
	0x00, 0x90, 0x44, 0x4C, 0x81, 0x70, 0x80, 0x44, 0x00, 0x00, 0x90, 0x47,
	0x4C, 0x81, 0x70, 0x80, 0x47, 0x00, 0x00, 0x90, 0x48, 0x4C, 0x00, 0x90,
	0x2D, 0x46, 0x81, 0x70, 0x80, 0x2D, 0x00, 0x00, 0x90, 0x34, 0x4C, 0x81,
	0x70, 0x80, 0x34, 0x00, 0x00, 0x80, 0x48, 0x00, 0x00, 0x90, 0x39, 0x4C,
	0x81, 0x70, 0x80, 0x39, 0x00, 0x00, 0x90, 0x40, 0x4C, 0x81, 0x70, 0x80,
	0x40, 0x00, 0x00, 0x90, 0x4C, 0x4C, 0x81, 0x70, 0x80, 0x4C, 0x00, 0x00,
	0x90, 0x4B, 0x4C, 0x81, 0x70, 0x80, 0x4B, 0x00, 0x00, 0x90, 0x4C, 0x4C,
	0x81, 0x70, 0x80, 0x4C, 0x00, 0x00, 0x90, 0x4B, 0x46, 0x81, 0x70, 0x80,
	0x4B, 0x00, 0x00, 0x90, 0x4C, 0x4C, 0x81, 0x70, 0x80, 0x4C, 0x00, 0x00,
	0x90, 0x47, 0x46, 0x81, 0x70, 0x80, 0x47, 0x00, 0x00, 0x90, 0x4A, 0x4C,
	0x81, 0x70, 0x80, 0x4A, 0x00, 0x00, 0x90, 0x48, 0x4C, 0x81, 0x70, 0x80,
	0x48, 0x00, 0x00, 0x90, 0x45, 0x53, 0x00, 0x90, 0x2D, 0x40, 0x81, 0x70,
	0x80, 0x2D, 0x00, 0x00, 0x90, 0x34, 0x4C, 0x81, 0x70, 0x80, 0x34, 0x00,
	0x00, 0x80, 0x45, 0x00, 0x00, 0x90, 0x39, 0x4C, 0x81, 0x70, 0x80, 0x39,
	0x00, 0x00, 0x90, 0x3C, 0x4C, 0x81, 0x70, 0x80, 0x3C, 0x00, 0x00, 0x90,
	0x40, 0x4C, 0x81, 0x70, 0x80, 0x40, 0x00, 0x00, 0x90, 0x45, 0x4C, 0x81,
	0x70, 0x80, 0x45, 0x00, 0x00, 0x90, 0x47, 0x4C, 0x00, 0x90, 0x28, 0x40,
	0x81, 0x70, 0x80, 0x28, 0x00, 0x00, 0x90, 0x34, 0x46, 0x81, 0x70, 0x80,
	0x34, 0x00, 0x00, 0x80, 0x47, 0x00, 0x00, 0x90, 0x38, 0x4C, 0x81, 0x70,
	0x80, 0x38, 0x00, 0x00, 0x90, 0x40, 0x4C, 0x81, 0x70, 0x80, 0x40, 0x00,
	0x00, 0x90, 0x48, 0x4C, 0x81, 0x70, 0x80, 0x48, 0x00, 0x00, 0x90, 0x47,
	0x4C, 0x81, 0x70, 0x80, 0x47, 0x00, 0x00, 0x90, 0x45, 0x4C, 0x00, 0x90,
	0x2D, 0x46, 0x81, 0x70, 0x80, 0x2D, 0x00, 0x00, 0x90, 0x34, 0x4C, 0x81,
	0x70, 0x80, 0x34, 0x00, 0x00, 0x80, 0x45, 0x00, 0x00, 0x90, 0x39, 0x4C,
	0x81, 0x70, 0x80, 0x39, 0x00, 0x00, 0x90, 0x47, 0x4C, 0x81, 0x70, 0x80,
	0x47, 0x00, 0x00, 0x90, 0x48, 0x4C, 0x81, 0x70, 0x80, 0x48, 0x00, 0x00,
	0x90, 0x4A, 0x4C, 0x81, 0x70, 0x80, 0x4A, 0x00, 0x00, 0x90, 0x4C, 0x4C,
	0x00, 0xFF, 0x7F, 0x04, 0x05, 0x0F, 0x0F, 0x11, 0x00, 0x90, 0x30, 0x40,
	0x81, 0x70, 0x80, 0x30, 0x00, 0x00, 0x90, 0x37, 0x46, 0x81, 0x70, 0x80,
	0x37, 0x00, 0x00, 0x90, 0x3C, 0x4C, 0x00, 0xFF, 0x7F, 0x04, 0x05, 0x0F,
	0x0F, 0x08, 0x81, 0x70, 0x80, 0x4C, 0x00, 0x00, 0x80, 0x3C, 0x00, 0x00,
	0x90, 0x43, 0x4C, 0x81, 0x70, 0x80, 0x43, 0x00, 0x00, 0x90, 0x4D, 0x4C,
	0x81, 0x70, 0x80, 0x4D, 0x00, 0x00, 0x90, 0x4C, 0x4C, 0x81, 0x70, 0x80,
	0x4C, 0x00, 0x00, 0x90, 0x4A, 0x4C, 0x00, 0xFF, 0x7F, 0x04, 0x05, 0x0F,
	0x0F, 0x01, 0x00, 0x90, 0x2B, 0x40, 0x81, 0x70, 0x80, 0x2B, 0x00, 0x00,
	0x90, 0x37, 0x46, 0x81, 0x70, 0x80, 0x37, 0x00, 0x00, 0x90, 0x3B, 0x4C,
	0x81, 0x70, 0x80, 0x4A, 0x00, 0x00, 0x80, 0x3B, 0x00, 0x00, 0x90, 0x41,
	0x4C, 0x81, 0x70, 0x80, 0x41, 0x00, 0x00, 0x90, 0x4C, 0x4C, 0x81, 0x70,
	0x80, 0x4C, 0x00, 0x00, 0x90, 0x4A, 0x4C, 0x81, 0x70, 0x80, 0x4A, 0x00,
	0x00, 0x90, 0x48, 0x53, 0x00, 0x90, 0x2D, 0x46, 0x81, 0x70, 0x80, 0x2D,
	0x00, 0x00, 0x90, 0x34, 0x46, 0x81, 0x70, 0x80, 0x34, 0x00, 0x00, 0x90,
	0x39, 0x4C, 0x81, 0x70, 0x80, 0x48, 0x00, 0x00, 0x80, 0x39, 0x00, 0x00,
	0x90, 0x40, 0x4C, 0x81, 0x70, 0x80, 0x40, 0x00, 0x00, 0x90, 0x4A, 0x4C,
	0x81, 0x70, 0x80, 0x4A, 0x00, 0x00, 0x90, 0x48, 0x4C, 0x81, 0x70, 0x80,
	0x48, 0x00, 0x00, 0x90, 0x47, 0x53, 0x00, 0x90, 0x28, 0x40, 0x81, 0x70,
	0x80, 0x28, 0x00, 0x00, 0x90, 0x34, 0x46, 0x81, 0x70, 0x80, 0x34, 0x00,
	0x00, 0x80, 0x47, 0x00, 0x00, 0x90, 0x40, 0x4C, 0x00, 0xFF, 0x7F, 0x04,
	0x05, 0x0F, 0x0F, 0x08, 0x81, 0x70, 0x80, 0x40, 0x00, 0x00, 0x90, 0x40,
	0x4C, 0x81, 0x70, 0x80, 0x40, 0x00, 0x00, 0x90, 0x4C, 0x53, 0x81, 0x70,
	0x80, 0x4C, 0x00, 0x00, 0x90, 0x40, 0x4C, 0x81, 0x70, 0x80, 0x40, 0x00,
	0x00, 0x90, 0x4C, 0x4C, 0x81, 0x70, 0x80, 0x4C, 0x00, 0x00, 0x90, 0x4C,
	0x46, 0x81, 0x70, 0x80, 0x4C, 0x00, 0x00, 0x90, 0x58, 0x40, 0x81, 0x70,
	0x80, 0x58, 0x00, 0x00, 0x90, 0x4B, 0x4C, 0x81, 0x70, 0x80, 0x4B, 0x00,
	0x00, 0x90, 0x4C, 0x46, 0x81, 0x70, 0x80, 0x4C, 0x00, 0x00, 0x90, 0x4B,
	0x4C, 0x81, 0x70, 0x80, 0x4B, 0x00, 0x00, 0x90, 0x4C, 0x4C, 0x81, 0x70,
	0x80, 0x4C, 0x00, 0x00, 0x90, 0x4B, 0x4C, 0x81, 0x70, 0x80, 0x4B, 0x00,
	0x00, 0x90, 0x4C, 0x4C, 0x81, 0x70, 0x80, 0x4C, 0x00, 0x00, 0x90, 0x47,
	0x4C, 0x81, 0x70, 0x80, 0x47, 0x00, 0x00, 0x90, 0x4A, 0x4C, 0x81, 0x70,
	0x80, 0x4A, 0x00, 0x00, 0x90, 0x48, 0x4C, 0x81, 0x70, 0x80, 0x48, 0x00,
	0x00, 0x90, 0x45, 0x53, 0x00, 0x90, 0x2D, 0x40, 0x81, 0x70, 0x80, 0x2D,
	0x00, 0x00, 0x90, 0x34, 0x46, 0x81, 0x70, 0x80, 0x34, 0x00, 0x00, 0x80,
	0x45, 0x00, 0x00, 0x90, 0x39, 0x4C, 0x81, 0x70, 0x80, 0x39, 0x00, 0x00,
	0x90, 0x3C, 0x46, 0x81, 0x70, 0x80, 0x3C, 0x00, 0x00, 0x90, 0x40, 0x4C,
	0x81, 0x70, 0x80, 0x40, 0x00, 0x00, 0x90, 0x45, 0x4C, 0x81, 0x70, 0x80,
	0x45, 0x00, 0x00, 0x90, 0x47, 0x4C, 0x00, 0x90, 0x28, 0x40, 0x81, 0x70,
	0x80, 0x28, 0x00, 0x00, 0x90, 0x34, 0x4C, 0x81, 0x70, 0x80, 0x34, 0x00,
	0x00, 0x80, 0x47, 0x00, 0x00, 0x90, 0x38, 0x4C, 0x81, 0x70, 0x80, 0x38,
	0x00, 0x00, 0x90, 0x40, 0x4C, 0x81, 0x70, 0x80, 0x40, 0x00, 0x00, 0x90,
	0x44, 0x4C, 0x81, 0x70, 0x80, 0x44, 0x00, 0x00, 0x90, 0x47, 0x4C, 0x81,
	0x70, 0x80, 0x47, 0x00, 0x00, 0x90, 0x48, 0x4C, 0x00, 0x90, 0x2D, 0x4C,
	0x81, 0x70, 0x80, 0x2D, 0x00, 0x00, 0x90, 0x34, 0x4C, 0x81, 0x70, 0x80,
	0x34, 0x00, 0x00, 0x80, 0x48, 0x00, 0x00, 0x90, 0x39, 0x4C, 0x81, 0x70,
	0x80, 0x39, 0x00, 0x00, 0x90, 0x40, 0x4C, 0x81, 0x70, 0x80, 0x40, 0x00,
	0x00, 0x90, 0x4C, 0x4C, 0x81, 0x70, 0x80, 0x4C, 0x00, 0x00, 0x90, 0x4B,
	0x4C, 0x81, 0x70, 0x80, 0x4B, 0x00, 0x00, 0x90, 0x4C, 0x4C, 0x81, 0x70,
	0x80, 0x4C, 0x00, 0x00, 0x90, 0x4B, 0x46, 0x81, 0x70, 0x80, 0x4B, 0x00,
	0x00, 0x90, 0x4C, 0x4C, 0x81, 0x70, 0x80, 0x4C, 0x00, 0x00, 0x90, 0x47,
	0x4C, 0x81, 0x70, 0x80, 0x47, 0x00, 0x00, 0x90, 0x4A, 0x4C, 0x81, 0x70,
	0x80, 0x4A, 0x00, 0x00, 0x90, 0x48, 0x46, 0x81, 0x70, 0x80, 0x48, 0x00,
	0x00, 0x90, 0x45, 0x4C, 0x00, 0x90, 0x2D, 0x40, 0x81, 0x70, 0x80, 0x2D,
	0x00, 0x00, 0x90, 0x34, 0x46, 0x81, 0x70, 0x80, 0x34, 0x00, 0x00, 0x80,
	0x45, 0x00, 0x00, 0x90, 0x39, 0x4C, 0x81, 0x70, 0x80, 0x39, 0x00, 0x00,
	0x90, 0x3C, 0x4C, 0x81, 0x70, 0x80, 0x3C, 0x00, 0x00, 0x90, 0x40, 0x4C,
	0x81, 0x70, 0x80, 0x40, 0x00, 0x00, 0x90, 0x45, 0x4C, 0x81, 0x70, 0x80,
	0x45, 0x00, 0x00, 0x90, 0x47, 0x4C, 0x00, 0x90, 0x28, 0x40, 0x81, 0x70,
	0x80, 0x28, 0x00, 0x00, 0x90, 0x34, 0x40, 0x81, 0x70, 0x80, 0x34, 0x00,
	0x00, 0x80, 0x47, 0x00, 0x00, 0x90, 0x38, 0x46, 0x81, 0x70, 0x80, 0x38,
	0x00, 0x00, 0x90, 0x40, 0x4C, 0x81, 0x70, 0x80, 0x40, 0x00, 0x00, 0x90,
	0x48, 0x4C, 0x81, 0x70, 0x80, 0x48, 0x00, 0x00, 0x90, 0x47, 0x4C, 0x81,
	0x70, 0x80, 0x47, 0x00, 0x00, 0x90, 0x45, 0x59, 0x00, 0x90, 0x2D, 0x46,
	0x81, 0x70, 0x80, 0x2D, 0x00, 0x00, 0x90, 0x34, 0x4C, 0x81, 0x70, 0x80,
	0x34, 0x00, 0x00, 0x80, 0x45, 0x00, 0x00, 0x90, 0x39, 0x53, 0x81, 0x70,
	0x80, 0x39, 0x00, 0x00, 0x90, 0x3A, 0x33, 0x00, 0xFF, 0x7F, 0x03, 0x05,
	0x0F, 0x0E, 0x00, 0x90, 0x3C, 0x33, 0x00, 0xFF, 0x7F, 0x03, 0x05, 0x0F,
	0x0E, 0x00, 0x90, 0x40, 0x33, 0x00, 0xFF, 0x7F, 0x03, 0x05, 0x0F, 0x0E,
	0x00, 0x90, 0x48, 0x33, 0x00, 0xFF, 0x7F, 0x03, 0x05, 0x0F, 0x0E, 0x78,
	0x80, 0x48, 0x00, 0x00, 0x80, 0x40, 0x00, 0x00, 0x80, 0x3A, 0x00, 0x00,
	0x80, 0x3C, 0x00, 0x78, 0x90, 0x3C, 0x40, 0x00, 0xFF, 0x7F, 0x03, 0x05,
	0x0F, 0x0E, 0x00, 0x90, 0x39, 0x40, 0x00, 0xFF, 0x7F, 0x03, 0x05, 0x0F,
	0x0E, 0x00, 0x90, 0x41, 0x40, 0x00, 0xFF, 0x7F, 0x03, 0x05, 0x0F, 0x0E,
	0x00, 0x90, 0x48, 0x40, 0x00, 0xFF, 0x7F, 0x03, 0x05, 0x0F, 0x0E, 0x78,
	0x80, 0x48, 0x00, 0x00, 0x80, 0x41, 0x00, 0x00, 0x80, 0x39, 0x00, 0x00,
	0x80, 0x3C, 0x00, 0x78, 0x90, 0x3A, 0x4E, 0x00, 0xFF, 0x7F, 0x03, 0x05,
	0x0F, 0x0E, 0x00, 0x90, 0x3C, 0x4E, 0x00, 0xFF, 0x7F, 0x03, 0x05, 0x0F,
	0x0E, 0x00, 0x90, 0x37, 0x4E, 0x00, 0xFF, 0x7F, 0x03, 0x05, 0x0F, 0x0E,
	0x00, 0x90, 0x40, 0x46, 0x00, 0xFF, 0x7F, 0x03, 0x05, 0x0F, 0x0E, 0x00,
	0x90, 0x48, 0x53, 0x00, 0xFF, 0x7F, 0x03, 0x05, 0x0F, 0x0E, 0x00, 0x90,
	0x43, 0x46, 0x00, 0xFF, 0x7F, 0x03, 0x05, 0x0F, 0x0E, 0x78, 0x80, 0x43,
	0x00, 0x00, 0x80, 0x48, 0x00, 0x00, 0x80, 0x40, 0x00, 0x00, 0x80, 0x37,
	0x00, 0x00, 0x80, 0x3A, 0x00, 0x00, 0x80, 0x3C, 0x00, 0x78, 0x90, 0x48,
	0x5F, 0x00, 0x90, 0x35, 0x4C, 0x81, 0x70, 0x80, 0x35, 0x00, 0x00, 0x90,
	0x39, 0x4C, 0x81, 0x70, 0x80, 0x39, 0x00, 0x00, 0x90, 0x3C, 0x4C, 0x00,
	0xFF, 0x7F, 0x04, 0x05, 0x0F, 0x0F, 0x08, 0x81, 0x70, 0x80, 0x3C, 0x00,
	0x00, 0x90, 0x39, 0x4C, 0x81, 0x70, 0x80, 0x39, 0x00, 0x00, 0x80, 0x48,
	0x00, 0x00, 0x90, 0x3C, 0x4C, 0x00, 0xFF, 0x7F, 0x04, 0x05, 0x0F, 0x0F,
	0x08, 0x00, 0x90, 0x4D, 0x4C, 0x81, 0x70, 0x80, 0x3C, 0x00, 0x00, 0x90,
	0x39, 0x4C, 0x78, 0x80, 0x4D, 0x00, 0x00, 0x90, 0x4C, 0x4C, 0x78, 0x80,
	0x4C, 0x00, 0x00, 0x80, 0x39, 0x00, 0x00, 0x90, 0x4C, 0x4C, 0x00, 0x90,
	0x35, 0x4C, 0x81, 0x70, 0x80, 0x35, 0x00, 0x00, 0x90, 0x3A, 0x4C, 0x81,
	0x70, 0x80, 0x3A, 0x00, 0x00, 0x80, 0x4C, 0x00, 0x00, 0x90, 0x4A, 0x4C,
	0x00, 0x90, 0x3E, 0x4C, 0x00, 0xFF, 0x7F, 0x04, 0x05, 0x0F, 0x0F, 0x08,
	0x81, 0x70, 0x80, 0x3E, 0x00, 0x00, 0x90, 0x3A, 0x4C, 0x81, 0x70, 0x80,
	0x3A, 0x00, 0x00, 0x80, 0x4A, 0x00, 0x00, 0x90, 0x3E, 0x4C, 0x00, 0xFF,
	0x7F, 0x04, 0x05, 0x0F, 0x0F, 0x08, 0x00, 0x90, 0x52, 0x4C, 0x81, 0x70,
	0x80, 0x3E, 0x00, 0x00, 0x90, 0x3A, 0x4C, 0x78, 0x80, 0x52, 0x00, 0x00,
	0x90, 0x51, 0x4C, 0x78, 0x80, 0x51, 0x00, 0x00, 0x80, 0x3A, 0x00, 0x00,
	0x90, 0x51, 0x4C, 0x00, 0x90, 0x35, 0x4C, 0x81, 0x70, 0x80, 0x35, 0x00,
	0x00, 0x80, 0x51, 0x00, 0x00, 0x90, 0x4F, 0x4C, 0x00, 0x90, 0x40, 0x4C,
	0x00, 0xFF, 0x7F, 0x04, 0x05, 0x0F, 0x0F, 0x08, 0x81, 0x70, 0x80, 0x40,
	0x00, 0x00, 0x80, 0x4F, 0x00, 0x00, 0x90, 0x4D, 0x4C, 0x00, 0x90, 0x3A,
	0x40, 0x00, 0x90, 0x37, 0x46, 0x00, 0x90, 0x35, 0x4C, 0x81, 0x70, 0x80,
	0x35, 0x00, 0x00, 0x80, 0x37, 0x00, 0x00, 0x80, 0x3A, 0x00, 0x00, 0x80,
	0x4D, 0x00, 0x00, 0x90, 0x4C, 0x4C, 0x00, 0x90, 0x40, 0x4C, 0x00, 0xFF,
	0x7F, 0x04, 0x05, 0x0F, 0x0F, 0x08, 0x81, 0x70, 0x80, 0x40, 0x00, 0x00,
	0x80, 0x4C, 0x00, 0x00, 0x90, 0x4A, 0x4C, 0x00, 0x90, 0x3A, 0x40, 0x00,
	0x90, 0x37, 0x46, 0x00, 0x90, 0x35, 0x4C, 0x81, 0x70, 0x80, 0x35, 0x00,
	0x00, 0x80, 0x37, 0x00, 0x00, 0x80, 0x3A, 0x00, 0x00, 0x80, 0x4A, 0x00,
	0x00, 0x90, 0x48, 0x4C, 0x00, 0x90, 0x40, 0x4C, 0x00, 0xFF, 0x7F, 0x04,
	0x05, 0x0F, 0x0F, 0x08, 0x81, 0x70, 0x80, 0x40, 0x00, 0x00, 0x80, 0x48,
	0x00, 0x00, 0x90, 0x46, 0x4C, 0x00, 0x90, 0x35, 0x4E, 0x81, 0x70, 0x80,
	0x35, 0x00, 0x00, 0x90, 0x39, 0x4E, 0x81, 0x70, 0x80, 0x39, 0x00, 0x00,
	0x80, 0x46, 0x00, 0x00, 0x90, 0x45, 0x4C, 0x00, 0x90, 0x3C, 0x4E, 0x00,
	0xFF, 0x7F, 0x04, 0x05, 0x0F, 0x0F, 0x08, 0x81, 0x70, 0x80, 0x3C, 0x00,
	0x00, 0x90, 0x39, 0x4E, 0x81, 0x70, 0x80, 0x39, 0x00, 0x00, 0x80, 0x45,
	0x00, 0x00, 0x90, 0x45, 0x53, 0x00, 0x90, 0x3C, 0x4E, 0x00, 0xFF, 0x7F,
	0x04, 0x05, 0x0F, 0x0F, 0x08, 0x78, 0x80, 0x45, 0x00, 0x00, 0x90, 0x43,
	0x4C, 0x78, 0x80, 0x3C, 0x00, 0x00, 0x80, 0x43, 0x00, 0x00, 0x90, 0x45,
	0x53, 0x00, 0x90, 0x39, 0x4E, 0x78, 0x80, 0x45, 0x00, 0x00, 0x90, 0x46,
	0x59, 0x78, 0x80, 0x39, 0x00, 0x00, 0x80, 0x46, 0x00, 0x00, 0x90, 0x48,
	0x5F, 0x00, 0x90, 0x35, 0x4C, 0x81, 0x70, 0x80, 0x35, 0x00, 0x00, 0x90,
	0x39, 0x4C, 0x81, 0x70, 0x80, 0x39, 0x00, 0x00, 0x90, 0x3C, 0x4C, 0x00,
	0xFF, 0x7F, 0x04, 0x05, 0x0F, 0x0F, 0x08, 0x81, 0x70, 0x80, 0x3C, 0x00,
	0x00, 0x90, 0x39, 0x4C, 0x81, 0x70, 0x80, 0x39, 0x00, 0x00, 0x80, 0x48,
	0x00, 0x00, 0x90, 0x4A, 0x5A, 0x00, 0x90, 0x3C, 0x4C, 0x81, 0x70, 0x80,
	0x3C, 0x00, 0x00, 0x80, 0x4A, 0x00, 0x00, 0x90, 0x4B, 0x5A, 0x00, 0x90,
	0x39, 0x4C, 0x81, 0x70, 0x80, 0x39, 0x00, 0x00, 0x80, 0x4B, 0x00, 0x00,
	0x90, 0x4C, 0x4E, 0x00, 0x90, 0x34, 0x4C, 0x81, 0x70, 0x80, 0x34, 0x00,
	0x00, 0x90, 0x39, 0x4C, 0x81, 0x70, 0x80, 0x39, 0x00, 0x00, 0x90, 0x3C,
	0x4C, 0x00, 0xFF, 0x7F, 0x04, 0x05, 0x0F, 0x0F, 0x08, 0x81, 0x70, 0x80,
	0x3C, 0x00, 0x00, 0x80, 0x4C, 0x00, 0x00, 0x90, 0x4C, 0x5A, 0x00, 0x90,
	0x39, 0x4C, 0x81, 0x70, 0x80, 0x39, 0x00, 0x00, 0x80, 0x4C, 0x00, 0x00,
	0x90, 0x4D, 0x5A, 0x00, 0x90, 0x3E, 0x4C, 0x00, 0xFF, 0x7F, 0x04, 0x05,
	0x0F, 0x0F, 0x08, 0x00, 0x90, 0x32, 0x4C, 0x81, 0x70, 0x80, 0x32, 0x00,
	0x00, 0x80, 0x3E, 0x00, 0x00, 0x80, 0x4D, 0x00, 0x00, 0x90, 0x45, 0x5A,
	0x00, 0x90, 0x35, 0x4C, 0x81, 0x70, 0x80, 0x35, 0x00, 0x00, 0x80, 0x45,
	0x00, 0x00, 0x90, 0x48, 0x5A, 0x00, 0x90, 0x37, 0x4C, 0x81, 0x70, 0x80,
	0x37, 0x00, 0x00, 0x90, 0x40, 0x4C, 0x00, 0xFF, 0x7F, 0x04, 0x05, 0x0F,
	0x0F, 0x08, 0x81, 0x70, 0x80, 0x40, 0x00, 0x00, 0x90, 0x37, 0x4C, 0x81,
	0x70, 0x80, 0x37, 0x00, 0x00, 0x90, 0x40, 0x4C, 0x00, 0xFF, 0x7F, 0x04,
	0x05, 0x0F, 0x0F, 0x08, 0x81, 0x70, 0x80, 0x40, 0x00, 0x00, 0x80, 0x48,
	0x00, 0x00, 0x90, 0x4A, 0x5A, 0x00, 0x90, 0x37, 0x4C, 0x81, 0x70, 0x80,
	0x37, 0x00, 0x00, 0x90, 0x41, 0x4C, 0x00, 0xFF, 0x7F, 0x04, 0x05, 0x0F,
	0x0F, 0x08, 0x78, 0x80, 0x4A, 0x00, 0x00, 0x90, 0x47, 0x5A, 0x78, 0x80,
	0x41, 0x00, 0x00, 0x80, 0x47, 0x00, 0x00, 0x90, 0x48, 0x5A, 0x00, 0x90,
	0x3C, 0x4C, 0x00, 0x90, 0x40, 0x4C, 0x00, 0xFF, 0x7F, 0x04, 0x05, 0x0F,
	0x0F, 0x08, 0x78, 0x80, 0x48, 0x00, 0x00, 0x90, 0x4F, 0x5A, 0x78, 0x80,
	0x4F, 0x00, 0x00, 0x90, 0x43, 0x5A, 0x78, 0x80, 0x43, 0x00, 0x00, 0x90,
	0x4F, 0x5A, 0x78, 0x80, 0x40, 0x00, 0x00, 0x80, 0x3C, 0x00, 0x00, 0x80,
	0x4F, 0x00, 0x00, 0x90, 0x45, 0x5A, 0x78, 0x80, 0x45, 0x00, 0x00, 0x90,
	0x4F, 0x5A, 0x78, 0x80, 0x4F, 0x00, 0x00, 0x90, 0x47, 0x5A, 0x00, 0x90,
	0x43, 0x4C, 0x00, 0xFF, 0x7F, 0x04, 0x05, 0x0F, 0x0F, 0x0C, 0x00, 0x90,
	0x41, 0x4C, 0x00, 0xFF, 0x7F, 0x04, 0x05, 0x0F, 0x0F, 0x0C, 0x78, 0x80,
	0x41, 0x00, 0x00, 0x80, 0x43, 0x00, 0x00, 0x80, 0x47, 0x00, 0x00, 0x90,
	0x4F, 0x5A, 0x78, 0x80, 0x4F, 0x00, 0x00, 0x90, 0x48, 0x5A, 0x00, 0x90,
	0x43, 0x4C, 0x00, 0xFF, 0x7F, 0x04, 0x05, 0x0F, 0x0F, 0x0C, 0x00, 0x90,
	0x40, 0x4C, 0x00, 0xFF, 0x7F, 0x04, 0x05, 0x0F, 0x0F, 0x0C, 0x78, 0x80,
	0x40, 0x00, 0x00, 0x80, 0x43, 0x00, 0x00, 0x80, 0x48, 0x00, 0x00, 0x90,
	0x4F, 0x5A, 0x78, 0x80, 0x4F, 0x00, 0x00, 0x90, 0x4A, 0x5A, 0x00, 0x90,
	0x43, 0x4C, 0x00, 0xFF, 0x7F, 0x04, 0x05, 0x0F, 0x0F, 0x0C, 0x00, 0x90,
	0x41, 0x4C, 0x00, 0xFF, 0x7F, 0x04, 0x05, 0x0F, 0x0F, 0x0C, 0x00, 0x90,
	0x3E, 0x4C, 0x00, 0xFF, 0x7F, 0x04, 0x05, 0x0F, 0x0F, 0x0C, 0x78, 0x80,
	0x3E, 0x00, 0x00, 0x80, 0x41, 0x00, 0x00, 0x80, 0x43, 0x00, 0x00, 0x80,
	0x4A, 0x00, 0x00, 0x90, 0x4F, 0x5A, 0x78, 0x80, 0x4F, 0x00, 0x00, 0x90,
	0x4C, 0x5A, 0x00, 0x90, 0x3C, 0x4C, 0x00, 0xFF, 0x7F, 0x03, 0x05, 0x0F,
	0x0E, 0x00, 0x90, 0x40, 0x4C, 0x00, 0xFF, 0x7F, 0x04, 0x05, 0x0F, 0x0F,
	0x0C, 0x00, 0x90, 0x43, 0x4C, 0x00, 0xFF, 0x7F, 0x04, 0x05, 0x0F, 0x0F,
	0x0C, 0x78, 0x80, 0x4C, 0x00, 0x00, 0x90, 0x4F, 0x5A, 0x78, 0x80, 0x43,
	0x00, 0x00, 0x80, 0x40, 0x00, 0x00, 0x80, 0x3C, 0x00, 0x00, 0x80, 0x4F,
	0x00, 0x00, 0x90, 0x54, 0x5A, 0x78, 0x80, 0x54, 0x00, 0x00, 0x90, 0x53,
	0x5A, 0x78, 0x80, 0x53, 0x00, 0x00, 0x90, 0x51, 0x5A, 0x00, 0x90, 0x35,
	0x4C, 0x00, 0xFF, 0x7F, 0x03, 0x05, 0x0F, 0x0E, 0x00, 0x90, 0x39, 0x4C,
	0x00, 0xFF, 0x7F, 0x03, 0x05, 0x0F, 0x0E, 0x78, 0x80, 0x51, 0x00, 0x00,
	0x90, 0x4F, 0x5A, 0x78, 0x80, 0x39, 0x00, 0x00, 0x80, 0x35, 0x00, 0x00,
	0x80, 0x4F, 0x00, 0x00, 0x90, 0x4D, 0x5A, 0x78, 0x80, 0x4D, 0x00, 0x00,
	0x90, 0x4A, 0x5A, 0x78, 0x80, 0x4A, 0x00, 0x00, 0x90, 0x48, 0x5A, 0x00,
	0x90, 0x37, 0x4C, 0x00, 0xFF, 0x7F, 0x03, 0x05, 0x0F, 0x0E, 0x00, 0x90,
	0x3B, 0x4C, 0x00, 0xFF, 0x7F, 0x03, 0x05, 0x0F, 0x0E, 0x78, 0x80, 0x48,
	0x00, 0x00, 0x90, 0x4F, 0x5A, 0x78, 0x80, 0x3B, 0x00, 0x00, 0x80, 0x37,
	0x00, 0x00, 0x80, 0x4F, 0x00, 0x00, 0x90, 0x4D, 0x5A, 0x78, 0x80, 0x4D,
	0x00, 0x00, 0x90, 0x4A, 0x5A, 0x78, 0x80, 0x4A, 0x00, 0x00, 0x90, 0x48,
	0x5A, 0x00, 0x90, 0x3C, 0x4C, 0x00, 0xFF, 0x7F, 0x04, 0x05, 0x0F, 0x0F,
	0x0C, 0x78, 0x80, 0x48, 0x00, 0x00, 0x90, 0x4F, 0x5A, 0x78, 0x80, 0x3C,
	0x00, 0x00, 0x80, 0x4F, 0x00, 0x00, 0x90, 0x43, 0x5A, 0x78, 0x80, 0x43,
	0x00, 0x00, 0x90, 0x4F, 0x5A, 0x78, 0x80, 0x4F, 0x00, 0x00, 0x90, 0x45,
	0x5A, 0x78, 0x80, 0x45, 0x00, 0x00, 0x90, 0x4F, 0x5A, 0x78, 0x80, 0x4F,
	0x00, 0x00, 0x90, 0x47, 0x5A, 0x00, 0x90, 0x43, 0x4C, 0x00, 0xFF, 0x7F,
	0x04, 0x05, 0x0F, 0x0F, 0x0C, 0x00, 0x90, 0x41, 0x4C, 0x00, 0xFF, 0x7F,
	0x04, 0x05, 0x0F, 0x0F, 0x0C, 0x78, 0x80, 0x41, 0x00, 0x00, 0x80, 0x43,
	0x00, 0x00, 0x80, 0x47, 0x00, 0x00, 0x90, 0x4F, 0x5A, 0x78, 0x80, 0x4F,
	0x00, 0x00, 0x90, 0x48, 0x5A, 0x00, 0x90, 0x43, 0x4C, 0x00, 0xFF, 0x7F,
	0x04, 0x05, 0x0F, 0x0F, 0x0C, 0x00, 0x90, 0x40, 0x4C, 0x00, 0xFF, 0x7F,
	0x04, 0x05, 0x0F, 0x0F, 0x0C, 0x78, 0x80, 0x40, 0x00, 0x00, 0x80, 0x43,
	0x00, 0x00, 0x80, 0x48, 0x00, 0x00, 0x90, 0x4F, 0x5A, 0x78, 0x80, 0x4F,
	0x00, 0x00, 0x90, 0x4A, 0x5A, 0x00, 0x90, 0x43, 0x4C, 0x00, 0xFF, 0x7F,
	0x04, 0x05, 0x0F, 0x0F, 0x0C, 0x00, 0x90, 0x41, 0x4C, 0x00, 0xFF, 0x7F,
	0x04, 0x05, 0x0F, 0x0F, 0x0C, 0x00, 0x90, 0x3E, 0x4C, 0x00, 0xFF, 0x7F,
	0x04, 0x05, 0x0F, 0x0F, 0x0C, 0x78, 0x80, 0x3E, 0x00, 0x00, 0x80, 0x41,
	0x00, 0x00, 0x80, 0x43, 0x00, 0x00, 0x80, 0x4A, 0x00, 0x00, 0x90, 0x4F,
	0x5A, 0x78, 0x80, 0x4F, 0x00, 0x00, 0x90, 0x4C, 0x5A, 0x00, 0x90, 0x3C,
	0x4C, 0x00, 0xFF, 0x7F, 0x03, 0x05, 0x0F, 0x0E, 0x00, 0x90, 0x40, 0x4C,
	0x00, 0xFF, 0x7F, 0x04, 0x05, 0x0F, 0x0F, 0x0C, 0x00, 0x90, 0x43, 0x4C,
	0x00, 0xFF, 0x7F, 0x04, 0x05, 0x0F, 0x0F, 0x0C, 0x78, 0x80, 0x4C, 0x00,
	0x00, 0x90, 0x4F, 0x5A, 0x78, 0x80, 0x43, 0x00, 0x00, 0x80, 0x40, 0x00,
	0x00, 0x80, 0x3C, 0x00, 0x00, 0x80, 0x4F, 0x00, 0x00, 0x90, 0x54, 0x5A,
	0x78, 0x80, 0x54, 0x00, 0x00, 0x90, 0x53, 0x5A, 0x78, 0x80, 0x53, 0x00,
	0x00, 0x90, 0x51, 0x5A, 0x00, 0x90, 0x35, 0x4C, 0x00, 0xFF, 0x7F, 0x03,
	0x05, 0x0F, 0x0E, 0x00, 0x90, 0x39, 0x4C, 0x00, 0xFF, 0x7F, 0x03, 0x05,
	0x0F, 0x0E, 0x78, 0x80, 0x51, 0x00, 0x00, 0x90, 0x4F, 0x5A, 0x78, 0x80,
	0x39, 0x00, 0x00, 0x80, 0x35, 0x00, 0x00, 0x80, 0x4F, 0x00, 0x00, 0x90,
	0x4D, 0x5A, 0x78, 0x80, 0x4D, 0x00, 0x00, 0x90, 0x4C, 0x5A, 0x78, 0x80,
	0x4C, 0x00, 0x00, 0x90, 0x4A, 0x5A, 0x00, 0x90, 0x37, 0x4C, 0x00, 0xFF,
	0x7F, 0x03, 0x05, 0x0F, 0x0E, 0x00, 0x90, 0x3B, 0x4C, 0x00, 0xFF, 0x7F,
	0x03, 0x05, 0x0F, 0x0E, 0x78, 0x80, 0x4A, 0x00, 0x00, 0x90, 0x4F, 0x5A,
	0x78, 0x80, 0x3B, 0x00, 0x00, 0x80, 0x37, 0x00, 0x00, 0x80, 0x4F, 0x00,
	0x00, 0x90, 0x4D, 0x5A, 0x78, 0x80, 0x4D, 0x00, 0x00, 0x90, 0x4A, 0x5A,
	0x78, 0x80, 0x4A, 0x00, 0x00, 0x90, 0x4C, 0x5A, 0x00, 0x90, 0x38, 0x4C,
	0x00, 0xFF, 0x7F, 0x03, 0x05, 0x0F, 0x0E, 0x00, 0x90, 0x3B, 0x4C, 0x00,
	0xFF, 0x7F, 0x03, 0x05, 0x0F, 0x0E, 0x78, 0x80, 0x4C, 0x00, 0x00, 0x90,
	0x4D, 0x5A, 0x78, 0x80, 0x3B, 0x00, 0x00, 0x80, 0x38, 0x00, 0x00, 0x80,
	0x4D, 0x00, 0x00, 0x90, 0x4C, 0x5A, 0x78, 0x80, 0x4C, 0x00, 0x00, 0x90,
	0x4B, 0x5A, 0x78, 0x80, 0x4B, 0x00, 0x00, 0x90, 0x4C, 0x5A, 0x78, 0x80,
	0x4C, 0x00, 0x00, 0x90, 0x47, 0x5A, 0x78, 0x80, 0x47, 0x00, 0x00, 0x90,
	0x4C, 0x5A, 0x78, 0x80, 0x4C, 0x00, 0x00, 0x90, 0x4B, 0x5A, 0x78, 0x80,
	0x4B, 0x00, 0x00, 0x90, 0x4C, 0x5A, 0x78, 0x80, 0x4C, 0x00, 0x00, 0x90,
	0x47, 0x5A, 0x78, 0x80, 0x47, 0x00, 0x00, 0x90, 0x4C, 0x5A, 0x78, 0x80,
	0x4C, 0x00, 0x00, 0x90, 0x4B, 0x5A, 0x78, 0x80, 0x4B, 0x00, 0x00, 0x90,
	0x4C, 0x53, 0x85, 0x50, 0x80, 0x4C, 0x00, 0x00, 0x90, 0x47, 0x53, 0x81,
	0x70, 0x80, 0x47, 0x00, 0x00, 0x90, 0x4C, 0x53, 0x81, 0x70, 0x80, 0x4C,
	0x00, 0x00, 0x90, 0x4B, 0x53, 0x81, 0x70, 0x80, 0x4B, 0x00, 0x00, 0x90,
	0x4C, 0x46, 0x85, 0x50, 0x80, 0x4C, 0x00, 0x00, 0x90, 0x47, 0x46, 0x81,
	0x70, 0x80, 0x47, 0x00, 0x00, 0x90, 0x4C, 0x40, 0x81, 0x70, 0x80, 0x4C,
	0x00, 0x00, 0x90, 0x4B, 0x46, 0x81, 0x70, 0x80, 0x4B, 0x00, 0x00, 0x90,
	0x4C, 0x4C, 0x81, 0x70, 0x80, 0x4C, 0x00, 0x00, 0x90, 0x4B, 0x46, 0x81,
	0x70, 0x80, 0x4B, 0x00, 0x00, 0x90, 0x4C, 0x4C, 0x81, 0x70, 0x80, 0x4C,
	0x00, 0x00, 0x90, 0x4B, 0x46, 0x81, 0x70, 0x80, 0x4B, 0x00, 0x00, 0x90,
	0x4C, 0x4C, 0x81, 0x70, 0x80, 0x4C, 0x00, 0x00, 0x90, 0x4B, 0x4C, 0x81,
	0x70, 0x80, 0x4B, 0x00, 0x00, 0x90, 0x4C, 0x39, 0x81, 0x70, 0x80, 0x4C,
	0x00, 0x00, 0x90, 0x4B, 0x40, 0x81, 0x70, 0x80, 0x4B, 0x00, 0x00, 0x90,
	0x4C, 0x4C, 0x81, 0x70, 0x80, 0x4C, 0x00, 0x00, 0x90, 0x47, 0x4C, 0x81,
	0x70, 0x80, 0x47, 0x00, 0x00, 0x90, 0x4A, 0x4C, 0x81, 0x70, 0x80, 0x4A,
	0x00, 0x00, 0x90, 0x48, 0x4C, 0x81, 0x70, 0x80, 0x48, 0x00, 0x00, 0x90,
	0x45, 0x4C, 0x00, 0xFF, 0x7F, 0x04, 0x05, 0x0F, 0x0F, 0x02, 0x00, 0x90,
	0x2D, 0x40, 0x81, 0x70, 0x80, 0x2D, 0x00, 0x00, 0x90, 0x34, 0x46, 0x81,
	0x70, 0x80, 0x34, 0x00, 0x00, 0x90, 0x39, 0x4C, 0x81, 0x70, 0x80, 0x45,
	0x00, 0x00, 0x80, 0x39, 0x00, 0x00, 0x90, 0x3C, 0x4C, 0x81, 0x70, 0x80,
	0x3C, 0x00, 0x00, 0x90, 0x40, 0x4C, 0x81, 0x70, 0x80, 0x40, 0x00, 0x00,
	0x90, 0x45, 0x4C, 0x81, 0x70, 0x80, 0x45, 0x00, 0x00, 0x90, 0x47, 0x4C,
	0x00, 0xFF, 0x7F, 0x04, 0x05, 0x0F, 0x0F, 0x02, 0x00, 0x90, 0x28, 0x40,
	0x81, 0x70, 0x80, 0x28, 0x00, 0x00, 0x90, 0x34, 0x46, 0x81, 0x70, 0x80,
	0x34, 0x00, 0x00, 0x90, 0x38, 0x4C, 0x81, 0x70, 0x80, 0x47, 0x00, 0x00,
	0x80, 0x38, 0x00, 0x00, 0x90, 0x40, 0x4C, 0x81, 0x70, 0x80, 0x40, 0x00,
	0x00, 0x90, 0x44, 0x4C, 0x81, 0x70, 0x80, 0x44, 0x00, 0x00, 0x90, 0x47,
	0x4C, 0x81, 0x70, 0x80, 0x47, 0x00, 0x00, 0x90, 0x48, 0x4C, 0x00, 0x90,
	0x2D, 0x46, 0x81, 0x70, 0x80, 0x2D, 0x00, 0x00, 0x90, 0x34, 0x46, 0x81,
	0x70, 0x80, 0x34, 0x00, 0x00, 0x90, 0x39, 0x4C, 0x81, 0x70, 0x80, 0x48,
	0x00, 0x00, 0x80, 0x39, 0x00, 0x00, 0x90, 0x40, 0x4C, 0x81, 0x70, 0x80,
	0x40, 0x00, 0x00, 0x90, 0x4C, 0x4C, 0x81, 0x70, 0x80, 0x4C, 0x00, 0x00,
	0x90, 0x4B, 0x46, 0x81, 0x70, 0x80, 0x4B, 0x00, 0x00, 0x90, 0x4C, 0x4C,
	0x81, 0x70, 0x80, 0x4C, 0x00, 0x00, 0x90, 0x4B, 0x46, 0x81, 0x70, 0x80,
	0x4B, 0x00, 0x00, 0x90, 0x4C, 0x4C, 0x81, 0x70, 0x80, 0x4C, 0x00, 0x00,
	0x90, 0x47, 0x4C, 0x81, 0x70, 0x80, 0x47, 0x00, 0x00, 0x90, 0x4A, 0x4C,
	0x81, 0x70, 0x80, 0x4A, 0x00, 0x00, 0x90, 0x48, 0x4C, 0x81, 0x70, 0x80,
	0x48, 0x00, 0x00, 0x90, 0x45, 0x4C, 0x00, 0xFF, 0x7F, 0x04, 0x05, 0x0F,
	0x0F, 0x02, 0x00, 0x90, 0x2D, 0x46, 0x81, 0x70, 0x80, 0x2D, 0x00, 0x00,
	0x90, 0x34, 0x4C, 0x81, 0x70, 0x80, 0x34, 0x00, 0x00, 0x90, 0x39, 0x4C,
	0x81, 0x70, 0x80, 0x45, 0x00, 0x00, 0x80, 0x39, 0x00, 0x00, 0x90, 0x3C,
	0x4C, 0x81, 0x70, 0x80, 0x3C, 0x00, 0x00, 0x90, 0x40, 0x4C, 0x81, 0x70,
	0x80, 0x40, 0x00, 0x00, 0x90, 0x45, 0x4C, 0x81, 0x70, 0x80, 0x45, 0x00,
	0x00, 0x90, 0x47, 0x4C, 0x00, 0xFF, 0x7F, 0x04, 0x05, 0x0F, 0x0F, 0x02,
	0x00, 0x90, 0x28, 0x46, 0x81, 0x70, 0x80, 0x28, 0x00, 0x00, 0x90, 0x34,
	0x46, 0x81, 0x70, 0x80, 0x34, 0x00, 0x00, 0x90, 0x38, 0x4C, 0x81, 0x70,
	0x80, 0x47, 0x00, 0x00, 0x80, 0x38, 0x00, 0x00, 0x90, 0x40, 0x4C, 0x81,
	0x70, 0x80, 0x40, 0x00, 0x00, 0x90, 0x48, 0x4C, 0x81, 0x70, 0x80, 0x48,
	0x00, 0x00, 0x90, 0x47, 0x4C, 0x81, 0x70, 0x80, 0x47, 0x00, 0x00, 0x90,
	0x45, 0x4C, 0x00, 0x90, 0x2D, 0x40, 0x81, 0x70, 0x80, 0x2D, 0x00, 0x00,
	0x90, 0x34, 0x46, 0x81, 0x70, 0x80, 0x34, 0x00, 0x00, 0x90, 0x39, 0x4C,
	0x81, 0x70, 0x80, 0x45, 0x00, 0x00, 0x80, 0x39, 0x00, 0x81, 0x70, 0x90,
	0x4C, 0x40, 0x81, 0x70, 0x80, 0x4C, 0x00, 0x00, 0x90, 0x4B, 0x46, 0x81,
	0x70, 0x80, 0x4B, 0x00, 0x00, 0x90, 0x4C, 0x4C, 0x81, 0x70, 0x80, 0x4C,
	0x00, 0x00, 0x90, 0x4B, 0x40, 0x81, 0x70, 0x80, 0x4B, 0x00, 0x00, 0x90,
	0x4C, 0x4C, 0x81, 0x70, 0x80, 0x4C, 0x00, 0x00, 0x90, 0x47, 0x4C, 0x81,
	0x70, 0x80, 0x47, 0x00, 0x00, 0x90, 0x4A, 0x4C, 0x81, 0x70, 0x80, 0x4A,
	0x00, 0x00, 0x90, 0x48, 0x4C, 0x81, 0x70, 0x80, 0x48, 0x00, 0x00, 0x90,
	0x45, 0x4C, 0x00, 0x90, 0x2D, 0x40, 0x81, 0x70, 0x80, 0x2D, 0x00, 0x00,
	0x90, 0x34, 0x46, 0x81, 0x70, 0x80, 0x34, 0x00, 0x00, 0x90, 0x39, 0x46,
	0x81, 0x70, 0x80, 0x39, 0x00, 0x00, 0x80, 0x45, 0x00, 0x00, 0x90, 0x3C,
	0x4C, 0x81, 0x70, 0x80, 0x3C, 0x00, 0x00, 0x90, 0x40, 0x4C, 0x81, 0x70,
	0x80, 0x40, 0x00, 0x00, 0x90, 0x45, 0x4C, 0x81, 0x70, 0x80, 0x45, 0x00,
	0x00, 0x90, 0x47, 0x4C, 0x00, 0x90, 0x28, 0x40, 0x81, 0x70, 0x80, 0x28,
	0x00, 0x00, 0x90, 0x34, 0x46, 0x81, 0x70, 0x80, 0x34, 0x00, 0x00, 0x90,
	0x38, 0x46, 0x81, 0x70, 0x80, 0x38, 0x00, 0x00, 0x80, 0x47, 0x00, 0x00,
	0x90, 0x40, 0x46, 0x81, 0x70, 0x80, 0x40, 0x00, 0x00, 0x90, 0x44, 0x4C,
	0x81, 0x70, 0x80, 0x44, 0x00, 0x00, 0x90, 0x47, 0x4C, 0x81, 0x70, 0x80,
	0x47, 0x00, 0x00, 0x90, 0x48, 0x53, 0x00, 0x90, 0x2D, 0x46, 0x81, 0x70,
	0x80, 0x2D, 0x00, 0x00, 0x90, 0x34, 0x46, 0x81, 0x70, 0x80, 0x34, 0x00,
	0x00, 0x80, 0x48, 0x00, 0x00, 0x90, 0x39, 0x4C, 0x81, 0x70, 0x80, 0x39,
	0x00, 0x00, 0x90, 0x40, 0x4C, 0x81, 0x70, 0x80, 0x40, 0x00, 0x00, 0x90,
	0x4C, 0x4C, 0x81, 0x70, 0x80, 0x4C, 0x00, 0x00, 0x90, 0x4B, 0x4C, 0x81,
	0x70, 0x80, 0x4B, 0x00, 0x00, 0x90, 0x4C, 0x4C, 0x81, 0x70, 0x80, 0x4C,
	0x00, 0x00, 0x90, 0x4B, 0x4C, 0x81, 0x70, 0x80, 0x4B, 0x00, 0x00, 0x90,
	0x4C, 0x4C, 0x81, 0x70, 0x80, 0x4C, 0x00, 0x00, 0x90, 0x47, 0x4C, 0x81,
	0x70, 0x80, 0x47, 0x00, 0x00, 0x90, 0x4A, 0x4C, 0x81, 0x70, 0x80, 0x4A,
	0x00, 0x00, 0x90, 0x48, 0x4C, 0x81, 0x70, 0x80, 0x48, 0x00, 0x00, 0x90,
	0x45, 0x4C, 0x00, 0x90, 0x2D, 0x46, 0x81, 0x70, 0x80, 0x2D, 0x00, 0x00,
	0x90, 0x34, 0x46, 0x81, 0x70, 0x80, 0x34, 0x00, 0x00, 0x80, 0x45, 0x00,
	0x00, 0x90, 0x39, 0x46, 0x81, 0x70, 0x80, 0x39, 0x00, 0x00, 0x90, 0x3C,
	0x4C, 0x81, 0x70, 0x80, 0x3C, 0x00, 0x00, 0x90, 0x40, 0x53, 0x81, 0x70,
	0x80, 0x40, 0x00, 0x00, 0x90, 0x45, 0x53, 0x81, 0x70, 0x80, 0x45, 0x00,
	0x00, 0x90, 0x47, 0x53, 0x00, 0x90, 0x28, 0x46, 0x81, 0x70, 0x80, 0x28,
	0x00, 0x00, 0x90, 0x34, 0x46, 0x81, 0x70, 0x80, 0x34, 0x00, 0x00, 0x80,
	0x47, 0x00, 0x00, 0x90, 0x38, 0x46, 0x81, 0x70, 0x80, 0x38, 0x00, 0x00,
	0x90, 0x40, 0x4C, 0x81, 0x70, 0x80, 0x40, 0x00, 0x00, 0x90, 0x48, 0x4C,
	0x81, 0x70, 0x80, 0x48, 0x00, 0x00, 0x90, 0x47, 0x4C, 0x81, 0x70, 0x80,
	0x47, 0x00, 0x00, 0x90, 0x45, 0x53, 0x00, 0x90, 0x2D, 0x40, 0x81, 0x70,
	0x80, 0x2D, 0x00, 0x00, 0x90, 0x34, 0x46, 0x81, 0x70, 0x80, 0x45, 0x00,
	0x00, 0x80, 0x34, 0x00, 0x00, 0x90, 0x39, 0x4C, 0x81, 0x70, 0x80, 0x39,
	0x00, 0x00, 0x90, 0x47, 0x53, 0x81, 0x70, 0x80, 0x47, 0x00, 0x00, 0x90,
	0x48, 0x4C, 0x81, 0x70, 0x80, 0x48, 0x00, 0x00, 0x90, 0x4A, 0x4C, 0x81,
	0x70, 0x80, 0x4A, 0x00, 0x00, 0x90, 0x4C, 0x53, 0x00, 0xFF, 0x7F, 0x04,
	0x05, 0x0F, 0x0F, 0x11, 0x00, 0x90, 0x30, 0x40, 0x81, 0x70, 0x80, 0x30,
	0x00, 0x00, 0x90, 0x37, 0x46, 0x81, 0x70, 0x80, 0x37, 0x00, 0x00, 0x90,
	0x3C, 0x4C, 0x00, 0xFF, 0x7F, 0x04, 0x05, 0x0F, 0x0F, 0x08, 0x81, 0x70,
	0x80, 0x4C, 0x00, 0x00, 0x80, 0x3C, 0x00, 0x00, 0x90, 0x43, 0x4C, 0x81,
	0x70, 0x80, 0x43, 0x00, 0x00, 0x90, 0x4D, 0x4C, 0x81, 0x70, 0x80, 0x4D,
	0x00, 0x00, 0x90, 0x4C, 0x4C, 0x81, 0x70, 0x80, 0x4C, 0x00, 0x00, 0x90,
	0x4A, 0x4C, 0x00, 0xFF, 0x7F, 0x04, 0x05, 0x0F, 0x0F, 0x01, 0x00, 0x90,
	0x2B, 0x46, 0x81, 0x70, 0x80, 0x2B, 0x00, 0x00, 0x90, 0x37, 0x4C, 0x81,
	0x70, 0x80, 0x37, 0x00, 0x00, 0x90, 0x3B, 0x4C, 0x81, 0x70, 0x80, 0x4A,
	0x00, 0x00, 0x80, 0x3B, 0x00, 0x00, 0x90, 0x41, 0x4C, 0x81, 0x70, 0x80,
	0x41, 0x00, 0x00, 0x90, 0x4C, 0x4C, 0x81, 0x70, 0x80, 0x4C, 0x00, 0x00,
	0x90, 0x4A, 0x4C, 0x81, 0x70, 0x80, 0x4A, 0x00, 0x00, 0x90, 0x48, 0x4C,
	0x00, 0x90, 0x2D, 0x46, 0x81, 0x70, 0x80, 0x2D, 0x00, 0x00, 0x90, 0x34,
	0x4C, 0x81, 0x70, 0x80, 0x34, 0x00, 0x00, 0x90, 0x39, 0x4C, 0x81, 0x70,
	0x80, 0x39, 0x00, 0x00, 0x80, 0x48, 0x00, 0x00, 0x90, 0x40, 0x4C, 0x81,
	0x70, 0x80, 0x40, 0x00, 0x00, 0x90, 0x4A, 0x4C, 0x81, 0x70, 0x80, 0x4A,
	0x00, 0x00, 0x90, 0x48, 0x4C, 0x81, 0x70, 0x80, 0x48, 0x00, 0x00, 0x90,
	0x47, 0x4C, 0x00, 0x90, 0x28, 0x4C, 0x81, 0x70, 0x80, 0x28, 0x00, 0x00,
	0x90, 0x34, 0x4C, 0x81, 0x70, 0x80, 0x34, 0x00, 0x00, 0x80, 0x47, 0x00,
	0x00, 0x90, 0x40, 0x4C, 0x00, 0xFF, 0x7F, 0x04, 0x05, 0x0F, 0x0F, 0x08,
	0x81, 0x70, 0x80, 0x40, 0x00, 0x00, 0x90, 0x40, 0x4C, 0x81, 0x70, 0x80,
	0x40, 0x00, 0x00, 0x90, 0x4C, 0x4C, 0x81, 0x70, 0x80, 0x4C, 0x00, 0x00,
	0x90, 0x40, 0x4C, 0x81, 0x70, 0x80, 0x40, 0x00, 0x00, 0x90, 0x4C, 0x4C,
	0x81, 0x70, 0x80, 0x4C, 0x00, 0x00, 0x90, 0x4C, 0x4C, 0x81, 0x70, 0x80,
	0x4C, 0x00, 0x00, 0x90, 0x58, 0x4C, 0x81, 0x70, 0x80, 0x58, 0x00, 0x00,
	0x90, 0x4B, 0x4C, 0x81, 0x70, 0x80, 0x4B, 0x00, 0x00, 0x90, 0x4C, 0x4C,
	0x81, 0x70, 0x80, 0x4C, 0x00, 0x00, 0x90, 0x4B, 0x4C, 0x81, 0x70, 0x80,
	0x4B, 0x00, 0x00, 0x90, 0x4C, 0x4C, 0x81, 0x70, 0x80, 0x4C, 0x00, 0x00,
	0x90, 0x4B, 0x4C, 0x81, 0x70, 0x80, 0x4B, 0x00, 0x00, 0x90, 0x4C, 0x4C,
	0x81, 0x70, 0x80, 0x4C, 0x00, 0x00, 0x90, 0x47, 0x4C, 0x81, 0x70, 0x80,
	0x47, 0x00, 0x00, 0x90, 0x4A, 0x4C, 0x81, 0x70, 0x80, 0x4A, 0x00, 0x00,
	0x90, 0x48, 0x4C, 0x81, 0x70, 0x80, 0x48, 0x00, 0x00, 0x90, 0x45, 0x4C,
	0x00, 0x90, 0x2D, 0x4C, 0x81, 0x70, 0x80, 0x2D, 0x00, 0x00, 0x90, 0x34,
	0x4C, 0x81, 0x70, 0x80, 0x34, 0x00, 0x00, 0x80, 0x45, 0x00, 0x00, 0x90,
	0x39, 0x4C, 0x81, 0x70, 0x80, 0x39, 0x00, 0x00, 0x90, 0x3C, 0x4C, 0x81,
	0x70, 0x80, 0x3C, 0x00, 0x00, 0x90, 0x40, 0x4C, 0x81, 0x70, 0x80, 0x40,
	0x00, 0x00, 0x90, 0x45, 0x4C, 0x81, 0x70, 0x80, 0x45, 0x00, 0x00, 0x90,
	0x47, 0x4C, 0x00, 0x90, 0x28, 0x4C, 0x81, 0x70, 0x80, 0x28, 0x00, 0x00,
	0x90, 0x34, 0x4C, 0x81, 0x70, 0x80, 0x34, 0x00, 0x00, 0x80, 0x47, 0x00,
	0x00, 0x90, 0x38, 0x4C, 0x81, 0x70, 0x80, 0x38, 0x00, 0x00, 0x90, 0x40,
	0x4C, 0x81, 0x70, 0x80, 0x40, 0x00, 0x00, 0x90, 0x44, 0x4C, 0x81, 0x70,
	0x80, 0x44, 0x00, 0x00, 0x90, 0x47, 0x4C, 0x81, 0x70, 0x80, 0x47, 0x00,
	0x00, 0x90, 0x48, 0x4C, 0x00, 0x90, 0x2D, 0x4C, 0x81, 0x70, 0x80, 0x2D,
	0x00, 0x00, 0x90, 0x34, 0x4C, 0x81, 0x70, 0x80, 0x34, 0x00, 0x00, 0x80,
	0x48, 0x00, 0x00, 0x90, 0x39, 0x4C, 0x81, 0x70, 0x80, 0x39, 0x00, 0x00,
	0x90, 0x40, 0x4C, 0x81, 0x70, 0x80, 0x40, 0x00, 0x00, 0x90, 0x4C, 0x4C,
	0x81, 0x70, 0x80, 0x4C, 0x00, 0x00, 0x90, 0x4B, 0x4C, 0x81, 0x70, 0x80,
	0x4B, 0x00, 0x00, 0x90, 0x4C, 0x4C, 0x81, 0x70, 0x80, 0x4C, 0x00, 0x00,
	0x90, 0x4B, 0x4C, 0x81, 0x70, 0x80, 0x4B, 0x00, 0x00, 0x90, 0x4C, 0x4C,
	0x81, 0x70, 0x80, 0x4C, 0x00, 0x00, 0x90, 0x47, 0x4C, 0x81, 0x70, 0x80,
	0x47, 0x00, 0x00, 0x90, 0x4A, 0x4C, 0x81, 0x70, 0x80, 0x4A, 0x00, 0x00,
	0x90, 0x48, 0x4C, 0x81, 0x70, 0x80, 0x48, 0x00, 0x00, 0x90, 0x45, 0x53,
	0x00, 0x90, 0x2D, 0x46, 0x81, 0x70, 0x80, 0x2D, 0x00, 0x00, 0x90, 0x34,
	0x46, 0x81, 0x70, 0x80, 0x34, 0x00, 0x00, 0x80, 0x45, 0x00, 0x00, 0x90,
	0x39, 0x4C, 0x81, 0x70, 0x80, 0x39, 0x00, 0x00, 0x90, 0x3C, 0x53, 0x81,
	0x70, 0x80, 0x3C, 0x00, 0x00, 0x90, 0x40, 0x53, 0x81, 0x70, 0x80, 0x40,
	0x00, 0x00, 0x90, 0x45, 0x53, 0x81, 0x70, 0x80, 0x45, 0x00, 0x00, 0x90,
	0x47, 0x59, 0x00, 0x90, 0x28, 0x40, 0x81, 0x70, 0x80, 0x28, 0x00, 0x00,
	0x90, 0x34, 0x46, 0x81, 0x70, 0x80, 0x34, 0x00, 0x00, 0x80, 0x47, 0x00,
	0x00, 0x90, 0x38, 0x4C, 0x81, 0x70, 0x80, 0x38, 0x00, 0x00, 0x90, 0x40,
	0x4C, 0x81, 0x70, 0x80, 0x40, 0x00, 0x00, 0x90, 0x48, 0x4C, 0x81, 0x70,
	0x80, 0x48, 0x00, 0x00, 0x90, 0x47, 0x53, 0x81, 0x70, 0x80, 0x47, 0x00,
	0x00, 0x90, 0x2D, 0x59, 0x00, 0xFF, 0x7F, 0x03, 0x05, 0x0F, 0x0E, 0x00,
	0x90, 0x45, 0x59, 0x78, 0x80, 0x2D, 0x00, 0x78, 0x90, 0x2D, 0x4C, 0x00,
	0xFF, 0x7F, 0x03, 0x05, 0x0F, 0x0E, 0x78, 0x80, 0x2D, 0x00, 0x78, 0x80,
	0x45, 0x00, 0x00, 0x90, 0x2D, 0x53, 0x00, 0xFF, 0x7F, 0x03, 0x05, 0x0F,
	0x0E, 0x78, 0x80, 0x2D, 0x00, 0x78, 0x90, 0x2D, 0x59, 0x00, 0xFF, 0x7F,
	0x03, 0x05, 0x0F, 0x0E, 0x78, 0x80, 0x2D, 0x00, 0x78, 0x90, 0x2D, 0x4C,
	0x00, 0xFF, 0x7F, 0x03, 0x05, 0x0F, 0x0E, 0x78, 0x80, 0x2D, 0x00, 0x78,
	0x90, 0x2D, 0x53, 0x00, 0xFF, 0x7F, 0x03, 0x05, 0x0F, 0x0E, 0x78, 0x80,
	0x2D, 0x00, 0x78, 0x90, 0x2D, 0x59, 0x00, 0xFF, 0x7F, 0x03, 0x05, 0x0F,
	0x0E, 0x00, 0x90, 0x40, 0x4E, 0x00, 0x90, 0x43, 0x4E, 0x00, 0x90, 0x46,
	0x4E, 0x00, 0x90, 0x49, 0x4E, 0x78, 0x80, 0x2D, 0x00, 0x78, 0x90, 0x2D,
	0x4C, 0x00, 0xFF, 0x7F, 0x03, 0x05, 0x0F, 0x0E, 0x78, 0x80, 0x2D, 0x00,
	0x78, 0x90, 0x2D, 0x53, 0x00, 0xFF, 0x7F, 0x03, 0x05, 0x0F, 0x0E, 0x78,
	0x80, 0x2D, 0x00, 0x78, 0x90, 0x2D, 0x59, 0x00, 0xFF, 0x7F, 0x03, 0x05,
	0x0F, 0x0E, 0x78, 0x80, 0x2D, 0x00, 0x78, 0x90, 0x2D, 0x4C, 0x00, 0xFF,
	0x7F, 0x03, 0x05, 0x0F, 0x0E, 0x78, 0x80, 0x2D, 0x00, 0x78, 0x90, 0x2D,
	0x53, 0x00, 0xFF, 0x7F, 0x03, 0x05, 0x0F, 0x0E, 0x78, 0x80, 0x2D, 0x00,
	0x78, 0x80, 0x40, 0x00, 0x00, 0x80, 0x43, 0x00, 0x00, 0x80, 0x46, 0x00,
	0x00, 0x80, 0x49, 0x00, 0x00, 0x90, 0x2D, 0x4E, 0x00, 0xFF, 0x7F, 0x03,
	0x05, 0x0F, 0x0E, 0x00, 0x90, 0x4A, 0x4E, 0x00, 0x90, 0x41, 0x4E, 0x00,
	0x90, 0x45, 0x4E, 0x78, 0x80, 0x2D, 0x00, 0x78, 0x90, 0x2D, 0x4E, 0x00,
	0xFF, 0x7F, 0x03, 0x05, 0x0F, 0x0E, 0x78, 0x80, 0x2D, 0x00, 0x78, 0x90,
	0x2D, 0x4E, 0x00, 0xFF, 0x7F, 0x03, 0x05, 0x0F, 0x0E, 0x78, 0x80, 0x2D,
	0x00, 0x78, 0x90, 0x2D, 0x4E, 0x00, 0xFF, 0x7F, 0x03, 0x05, 0x0F, 0x0E,
	0x78, 0x80, 0x2D, 0x00, 0x78, 0x80, 0x45, 0x00, 0x00, 0x80, 0x41, 0x00,
	0x00, 0x80, 0x4A, 0x00, 0x00, 0x90, 0x2D, 0x4E, 0x00, 0xFF, 0x7F, 0x03,
	0x05, 0x0F, 0x0E, 0x00, 0x90, 0x49, 0x4E, 0x00, 0x90, 0x4C, 0x4E, 0x78,
	0x80, 0x2D, 0x00, 0x78, 0x80, 0x4C, 0x00, 0x00, 0x80, 0x49, 0x00, 0x00,
	0x90, 0x2D, 0x4E, 0x00, 0xFF, 0x7F, 0x03, 0x05, 0x0F, 0x0E, 0x00, 0x90,
	0x4A, 0x4E, 0x00, 0x90, 0x4D, 0x4E, 0x78, 0x80, 0x2D, 0x00, 0x78, 0x80,
	0x4D, 0x00, 0x00, 0x80, 0x4A, 0x00, 0x00, 0x90, 0x2D, 0x4E, 0x00, 0xFF,
	0x7F, 0x03, 0x05, 0x0F, 0x0E, 0x00, 0x90, 0x4D, 0x4E, 0x00, 0x90, 0x4A,
	0x4E, 0x00, 0x90, 0x44, 0x4E, 0x78, 0x80, 0x2D, 0x00, 0x78, 0x90, 0x2D,
	0x4E, 0x00, 0xFF, 0x7F, 0x03, 0x05, 0x0F, 0x0E, 0x78, 0x80, 0x2D, 0x00,
	0x78, 0x90, 0x2D, 0x4E, 0x00, 0xFF, 0x7F, 0x03, 0x05, 0x0F, 0x0E, 0x78,
	0x80, 0x2D, 0x00, 0x78, 0x90, 0x2D, 0x4E, 0x00, 0xFF, 0x7F, 0x03, 0x05,
	0x0F, 0x0E, 0x78, 0x80, 0x2D, 0x00, 0x78, 0x80, 0x44, 0x00, 0x00, 0x80,
	0x4A, 0x00, 0x00, 0x80, 0x4D, 0x00, 0x00, 0x90, 0x2D, 0x4E, 0x00, 0xFF,
	0x7F, 0x03, 0x05, 0x0F, 0x0E, 0x00, 0x90, 0x4D, 0x4E, 0x00, 0x90, 0x4A,
	0x4E, 0x00, 0x90, 0x44, 0x4E, 0x78, 0x80, 0x2D, 0x00, 0x78, 0x90, 0x2D,
	0x4E, 0x00, 0xFF, 0x7F, 0x03, 0x05, 0x0F, 0x0E, 0x78, 0x80, 0x2D, 0x00,
	0x78, 0x80, 0x44, 0x00, 0x00, 0x80, 0x4A, 0x00, 0x00, 0x80, 0x4D, 0x00,
	0x00, 0x90, 0x2D, 0x4E, 0x00, 0xFF, 0x7F, 0x03, 0x05, 0x0F, 0x0E, 0x00,
	0x90, 0x45, 0x4E, 0x00, 0x90, 0x48, 0x4E, 0x00, 0x90, 0x4C, 0x4E, 0x78,
	0x80, 0x2D, 0x00, 0x78, 0x90, 0x2D, 0x4C, 0x00, 0xFF, 0x7F, 0x03, 0x05,
	0x0F, 0x0E, 0x78, 0x80, 0x2D, 0x00, 0x78, 0x90, 0x2D, 0x53, 0x00, 0xFF,
	0x7F, 0x03, 0x05, 0x0F, 0x0E, 0x78, 0x80, 0x2D, 0x00, 0x78, 0x90, 0x2D,
	0x59, 0x00, 0xFF, 0x7F, 0x03, 0x05, 0x0F, 0x0E, 0x78, 0x80, 0x2D, 0x00,
	0x78, 0x90, 0x2D, 0x53, 0x00, 0xFF, 0x7F, 0x03, 0x05, 0x0F, 0x0E, 0x78,
	0x80, 0x2D, 0x00, 0x78, 0x90, 0x2D, 0x4C, 0x00, 0xFF, 0x7F, 0x03, 0x05,
	0x0F, 0x0E, 0x78, 0x80, 0x2D, 0x00, 0x78, 0x80, 0x4C, 0x00, 0x00, 0x80,
	0x48, 0x00, 0x00, 0x80, 0x45, 0x00, 0x00, 0x90, 0x2D, 0x53, 0x00, 0xFF,
	0x7F, 0x03, 0x05, 0x0F, 0x0E, 0x00, 0x90, 0x26, 0x59, 0x00, 0xFF, 0x7F,
	0x03, 0x05, 0x0F, 0x0E, 0x00, 0x90, 0x4A, 0x53, 0x00, 0x90, 0x41, 0x59,
	0x78, 0x80, 0x26, 0x00, 0x00, 0x80, 0x2D, 0x00, 0x78, 0x90, 0x2D, 0x53,
	0x00, 0xFF, 0x7F, 0x03, 0x05, 0x0F, 0x0E, 0x00, 0x90, 0x26, 0x53, 0x00,
	0xFF, 0x7F, 0x03, 0x05, 0x0F, 0x0E, 0x78, 0x80, 0x26, 0x00, 0x00, 0x80,
	0x2D, 0x00, 0x78, 0x90, 0x2D, 0x4C, 0x00, 0xFF, 0x7F, 0x03, 0x05, 0x0F,
	0x0E, 0x00, 0x90, 0x26, 0x53, 0x00, 0xFF, 0x7F, 0x03, 0x05, 0x0F, 0x0E,
	0x78, 0x80, 0x26, 0x00, 0x00, 0x80, 0x2D, 0x00, 0x78, 0x90, 0x2D, 0x59,
	0x00, 0xFF, 0x7F, 0x03, 0x05, 0x0F, 0x0E, 0x00, 0x90, 0x26, 0x53, 0x00,
	0xFF, 0x7F, 0x03, 0x05, 0x0F, 0x0E, 0x78, 0x80, 0x26, 0x00, 0x00, 0x80,
	0x2D, 0x00, 0x78, 0x80, 0x41, 0x00, 0x00, 0x80, 0x4A, 0x00, 0x00, 0x90,
	0x2D, 0x4E, 0x00, 0xFF, 0x7F, 0x03, 0x05, 0x0F, 0x0E, 0x00, 0x90, 0x26,
	0x4E, 0x00, 0xFF, 0x7F, 0x03, 0x05, 0x0F, 0x0E, 0x00, 0x90, 0x48, 0x53,
	0x00, 0x90, 0x40, 0x53, 0x78, 0x80, 0x26, 0x00, 0x00, 0x80, 0x2D, 0x00,
	0x78, 0x80, 0x40, 0x00, 0x00, 0x80, 0x48, 0x00, 0x00, 0x90, 0x2D, 0x4E,
	0x00, 0xFF, 0x7F, 0x03, 0x05, 0x0F, 0x0E, 0x00, 0x90, 0x26, 0x4E, 0x00,
	0xFF, 0x7F, 0x03, 0x05, 0x0F, 0x0E, 0x00, 0x90, 0x47, 0x4E, 0x00, 0x90,
	0x3E, 0x4E, 0x78, 0x80, 0x26, 0x00, 0x00, 0x80, 0x2D, 0x00, 0x78, 0x80,
	0x3E, 0x00, 0x00, 0x80, 0x47, 0x00, 0x00, 0x90, 0x27, 0x4C, 0x00, 0xFF,
	0x7F, 0x03, 0x05, 0x0F, 0x0E, 0x00, 0x90, 0x2D, 0x53, 0x00, 0xFF, 0x7F,
	0x03, 0x05, 0x0F, 0x0E, 0x00, 0x90, 0x3C, 0x53, 0x00, 0x90, 0x42, 0x4E,
	0x00, 0x90, 0x45, 0x53, 0x78, 0x80, 0x2D, 0x00, 0x00, 0x80, 0x27, 0x00,
	0x78, 0x90, 0x2D, 0x4C, 0x00, 0xFF, 0x7F, 0x03, 0x05, 0x0F, 0x0E, 0x00,
	0x90, 0x27, 0x4E, 0x00, 0xFF, 0x7F, 0x03, 0x05, 0x0F, 0x0E, 0x3C, 0x80,
	0x27, 0x00, 0x3C, 0x80, 0x2D, 0x00, 0x78, 0x90, 0x2D, 0x4E, 0x00, 0xFF,
	0x7F, 0x03, 0x05, 0x0F, 0x0E, 0x00, 0x90, 0x27, 0x4E, 0x00, 0xFF, 0x7F,
	0x03, 0x05, 0x0F, 0x0E, 0x3C, 0x80, 0x27, 0x00, 0x3C, 0x80, 0x2D, 0x00,
	0x78, 0x90, 0x2D, 0x4E, 0x00, 0xFF, 0x7F, 0x03, 0x05, 0x0F, 0x0E, 0x00,
	0x90, 0x27, 0x4E, 0x00, 0xFF, 0x7F, 0x03, 0x05, 0x0F, 0x0E, 0x0F, 0x80,
	0x27, 0x00, 0x69, 0x80, 0x2D, 0x00, 0x78, 0x80, 0x45, 0x00, 0x00, 0x80,
	0x42, 0x00, 0x00, 0x80, 0x3C, 0x00, 0x00, 0x90, 0x2D, 0x4E, 0x00, 0xFF,
	0x7F, 0x03, 0x05, 0x0F, 0x0E, 0x00, 0x90, 0x3C, 0x4E, 0x00, 0x90, 0x45,
	0x4E, 0x00, 0x90, 0x27, 0x4E, 0x00, 0xFF, 0x7F, 0x03, 0x05, 0x0F, 0x0E,
	0x3C, 0x80, 0x27, 0x00, 0x3C, 0x80, 0x2D, 0x00, 0x78, 0x90, 0x2D, 0x4E,
	0x00, 0xFF, 0x7F, 0x03, 0x05, 0x0F, 0x0E, 0x00, 0x90, 0x27, 0x4E, 0x00,
	0xFF, 0x7F, 0x03, 0x05, 0x0F, 0x0E, 0x3C, 0x80, 0x27, 0x00, 0x3C, 0x80,
	0x2D, 0x00, 0x78, 0x80, 0x45, 0x00, 0x00, 0x80, 0x3C, 0x00, 0x00, 0x90,
	0x2D, 0x4E, 0x00, 0xFF, 0x7F, 0x03, 0x05, 0x0F, 0x0E, 0x00, 0x90, 0x28,
	0x4E, 0x00, 0xFF, 0x7F, 0x03, 0x05, 0x0F, 0x0E, 0x00, 0x90, 0x45, 0x4E,
	0x00, 0x90, 0x3C, 0x4E, 0x78, 0x80, 0x28, 0x00, 0x00, 0x80, 0x2D, 0x00,
	0x78, 0x90, 0x2D, 0x4E, 0x00, 0xFF, 0x7F, 0x03, 0x05, 0x0F, 0x0E, 0x00,
	0x90, 0x28, 0x4E, 0x00, 0xFF, 0x7F, 0x03, 0x05, 0x0F, 0x0E, 0x78, 0x80,
	0x28, 0x00, 0x00, 0x80, 0x2D, 0x00, 0x78, 0x80, 0x3C, 0x00, 0x00, 0x80,
	0x45, 0x00, 0x00, 0x90, 0x2D, 0x4E, 0x00, 0xFF, 0x7F, 0x03, 0x05, 0x0F,
	0x0E, 0x00, 0x90, 0x28, 0x4E, 0x00, 0xFF, 0x7F, 0x03, 0x05, 0x0F, 0x0E,
	0x00, 0x90, 0x48, 0x4E, 0x00, 0x90, 0x40, 0x4E, 0x78, 0x80, 0x28, 0x00,
	0x00, 0x80, 0x2D, 0x00, 0x78, 0x90, 0x2D, 0x4E, 0x00, 0xFF, 0x7F, 0x03,
	0x05, 0x0F, 0x0E, 0x00, 0x90, 0x28, 0x4E, 0x00, 0xFF, 0x7F, 0x03, 0x05,
	0x0F, 0x0E, 0x78, 0x80, 0x28, 0x00, 0x00, 0x80, 0x2D, 0x00, 0x78, 0x80,
	0x40, 0x00, 0x00, 0x80, 0x48, 0x00, 0x00, 0x90, 0x2C, 0x4E, 0x00, 0xFF,
	0x7F, 0x03, 0x05, 0x0F, 0x0E, 0x00, 0x90, 0x28, 0x4E, 0x00, 0xFF, 0x7F,
	0x03, 0x05, 0x0F, 0x0E, 0x00, 0x90, 0x47, 0x4E, 0x00, 0x90, 0x3E, 0x4E,
	0x78, 0x80, 0x28, 0x00, 0x00, 0x80, 0x2C, 0x00, 0x78, 0x90, 0x2C, 0x4E,
	0x00, 0xFF, 0x7F, 0x03, 0x05, 0x0F, 0x0E, 0x00, 0x90, 0x28, 0x4E, 0x00,
	0xFF, 0x7F, 0x03, 0x05, 0x0F, 0x0E, 0x78, 0x80, 0x28, 0x00, 0x00, 0x80,
	0x2C, 0x00, 0x78, 0x80, 0x3E, 0x00, 0x00, 0x80, 0x47, 0x00, 0x00, 0x90,
	0x2D, 0x4E, 0x00, 0xFF, 0x7F, 0x03, 0x05, 0x0F, 0x0E, 0x00, 0x90, 0x21,
	0x4E, 0x00, 0xFF, 0x7F, 0x03, 0x05, 0x0F, 0x0E, 0x00, 0x90, 0x45, 0x4E,
	0x00, 0x90, 0x3C, 0x4E, 0x78, 0x80, 0x21, 0x00, 0x00, 0x80, 0x2D, 0x00,
	0x78, 0x90, 0x2D, 0x4C, 0x00, 0xFF, 0x7F, 0x03, 0x05, 0x0F, 0x0E, 0x78,
	0x80, 0x2D, 0x00, 0x78, 0x90, 0x2D, 0x53, 0x00, 0xFF, 0x7F, 0x03, 0x05,
	0x0F, 0x0E, 0x78, 0x80, 0x2D, 0x00, 0x78, 0x90, 0x2D, 0x59, 0x00, 0xFF,
	0x7F, 0x03, 0x05, 0x0F, 0x0E, 0x78, 0x80, 0x2D, 0x00, 0x78, 0x90, 0x2D,
	0x4C, 0x00, 0xFF, 0x7F, 0x03, 0x05, 0x0F, 0x0E, 0x78, 0x80, 0x2D, 0x00,
	0x78, 0x90, 0x2D, 0x53, 0x00, 0xFF, 0x7F, 0x03, 0x05, 0x0F, 0x0E, 0x78,
	0x80, 0x2D, 0x00, 0x78, 0x80, 0x3C, 0x00, 0x00, 0x80, 0x45, 0x00, 0x00,
	0x90, 0x2D, 0x4C, 0x00, 0xFF, 0x7F, 0x03, 0x05, 0x0F, 0x0E, 0x00, 0x90,
	0x40, 0x53, 0x00, 0x90, 0x43, 0x4E, 0x00, 0x90, 0x46, 0x4E, 0x00, 0x90,
	0x49, 0x4E, 0x78, 0x80, 0x2D, 0x00, 0x78, 0x90, 0x2D, 0x59, 0x00, 0xFF,
	0x7F, 0x03, 0x05, 0x0F, 0x0E, 0x78, 0x80, 0x2D, 0x00, 0x78, 0x90, 0x2D,
	0x53, 0x00, 0xFF, 0x7F, 0x03, 0x05, 0x0F, 0x0E, 0x78, 0x80, 0x2D, 0x00,
	0x78, 0x90, 0x2D, 0x59, 0x00, 0xFF, 0x7F, 0x03, 0x05, 0x0F, 0x0E, 0x78,
	0x80, 0x2D, 0x00, 0x78, 0x90, 0x2D, 0x4C, 0x00, 0xFF, 0x7F, 0x03, 0x05,
	0x0F, 0x0E, 0x78, 0x80, 0x2D, 0x00, 0x78, 0x90, 0x2D, 0x53, 0x00, 0xFF,
	0x7F, 0x03, 0x05, 0x0F, 0x0E, 0x78, 0x80, 0x2D, 0x00, 0x78, 0x80, 0x40,
	0x00, 0x00, 0x80, 0x49, 0x00, 0x00, 0x80, 0x46, 0x00, 0x00, 0x80, 0x43,
	0x00, 0x00, 0x90, 0x2D, 0x4E, 0x00, 0xFF, 0x7F, 0x03, 0x05, 0x0F, 0x0E,
	0x00, 0x90, 0x4A, 0x4E, 0x00, 0x90, 0x45, 0x4E, 0x00, 0x90, 0x41, 0x4E,
	0x78, 0x80, 0x2D, 0x00, 0x78, 0x90, 0x2D, 0x4E, 0x00, 0xFF, 0x7F, 0x03,
	0x05, 0x0F, 0x0E, 0x78, 0x80, 0x2D, 0x00, 0x78, 0x90, 0x2D, 0x4E, 0x00,
	0xFF, 0x7F, 0x03, 0x05, 0x0F, 0x0E, 0x78, 0x80, 0x2D, 0x00, 0x78, 0x90,
	0x2D, 0x4E, 0x00, 0xFF, 0x7F, 0x03, 0x05, 0x0F, 0x0E, 0x78, 0x80, 0x2D,
	0x00, 0x78, 0x80, 0x41, 0x00, 0x00, 0x80, 0x45, 0x00, 0x00, 0x80, 0x4A,
	0x00, 0x00, 0x90, 0x2D, 0x4E, 0x00, 0xFF, 0x7F, 0x03, 0x05, 0x0F, 0x0E,
	0x00, 0x90, 0x49, 0x4E, 0x00, 0x90, 0x4C, 0x4E, 0x78, 0x80, 0x2D, 0x00,
	0x78, 0x80, 0x4C, 0x00, 0x00, 0x80, 0x49, 0x00, 0x00, 0x90, 0x2D, 0x4E,
	0x00, 0xFF, 0x7F, 0x03, 0x05, 0x0F, 0x0E, 0x00, 0x90, 0x4A, 0x4E, 0x00,
	0x90, 0x4D, 0x4E, 0x78, 0x80, 0x2D, 0x00, 0x78, 0x80, 0x4D, 0x00, 0x00,
	0x80, 0x4A, 0x00, 0x00, 0x90, 0x2D, 0x4E, 0x00, 0xFF, 0x7F, 0x03, 0x05,
	0x0F, 0x0E, 0x00, 0x90, 0x4A, 0x4E, 0x00, 0x90, 0x4D, 0x4E, 0x78, 0x80,
	0x2D, 0x00, 0x78, 0x90, 0x2D, 0x4E, 0x00, 0xFF, 0x7F, 0x03, 0x05, 0x0F,
	0x0E, 0x78, 0x80, 0x2D, 0x00, 0x78, 0x90, 0x2D, 0x4E, 0x00, 0xFF, 0x7F,
	0x03, 0x05, 0x0F, 0x0E, 0x78, 0x80, 0x2D, 0x00, 0x78, 0x90, 0x2D, 0x4E,
	0x00, 0xFF, 0x7F, 0x03, 0x05, 0x0F, 0x0E, 0x78, 0x80, 0x2D, 0x00, 0x78,
	0x80, 0x4D, 0x00, 0x00, 0x80, 0x4A, 0x00, 0x00, 0x90, 0x2D, 0x4E, 0x00,
	0xFF, 0x7F, 0x03, 0x05, 0x0F, 0x0E, 0x00, 0x90, 0x4A, 0x4E, 0x00, 0x90,
	0x4D, 0x53, 0x78, 0x80, 0x2D, 0x00, 0x78, 0x90, 0x2D, 0x4E, 0x00, 0xFF,
	0x7F, 0x03, 0x05, 0x0F, 0x0E, 0x78, 0x80, 0x2D, 0x00, 0x78, 0x80, 0x4D,
	0x00, 0x00, 0x80, 0x4A, 0x00, 0x00, 0x90, 0x2E, 0x4C, 0x00, 0xFF, 0x7F,
	0x03, 0x05, 0x0F, 0x0E, 0x00, 0x90, 0x4D, 0x59, 0x00, 0x90, 0x4A, 0x4E,
	0x78, 0x80, 0x2E, 0x00, 0x78, 0x90, 0x2E, 0x53, 0x00, 0xFF, 0x7F, 0x03,
	0x05, 0x0F, 0x0E, 0x78, 0x80, 0x2E, 0x00, 0x78, 0x90, 0x2E, 0x59, 0x00,
	0xFF, 0x7F, 0x03, 0x05, 0x0F, 0x0E, 0x78, 0x80, 0x2E, 0x00, 0x78, 0x90,
	0x2E, 0x53, 0x00, 0xFF, 0x7F, 0x03, 0x05, 0x0F, 0x0E, 0x78, 0x80, 0x2E,
	0x00, 0x78, 0x90, 0x2E, 0x59, 0x00, 0xFF, 0x7F, 0x03, 0x05, 0x0F, 0x0E,
	0x78, 0x80, 0x2E, 0x00, 0x78, 0x90, 0x2E, 0x4C, 0x00, 0xFF, 0x7F, 0x03,
	0x05, 0x0F, 0x0E, 0x78, 0x80, 0x2E, 0x00, 0x78, 0x80, 0x4D, 0x00, 0x00,
	0x80, 0x4A, 0x00, 0x00, 0x90, 0x2E, 0x53, 0x00, 0xFF, 0x7F, 0x03, 0x05,
	0x0F, 0x0E, 0x00, 0x90, 0x4B, 0x4C, 0x00, 0x90, 0x43, 0x4E, 0x78, 0x80,
	0x2E, 0x00, 0x78, 0x90, 0x2E, 0x4E, 0x00, 0xFF, 0x7F, 0x03, 0x05, 0x0F,
	0x0E, 0x78, 0x80, 0x2E, 0x00, 0x78, 0x90, 0x2E, 0x4E, 0x00, 0xFF, 0x7F,
	0x03, 0x05, 0x0F, 0x0E, 0x78, 0x80, 0x2E, 0x00, 0x78, 0x90, 0x2E, 0x4E,
	0x00, 0xFF, 0x7F, 0x03, 0x05, 0x0F, 0x0E, 0x78, 0x80, 0x2E, 0x00, 0x78,
	0x80, 0x43, 0x00, 0x00, 0x80, 0x4B, 0x00, 0x00, 0x90, 0x2E, 0x4E, 0x00,
	0xFF, 0x7F, 0x03, 0x05, 0x0F, 0x0E, 0x00, 0x90, 0x4A, 0x4C, 0x00, 0x90,
	0x41, 0x4E, 0x78, 0x80, 0x2E, 0x00, 0x78, 0x80, 0x41, 0x00, 0x00, 0x80,
	0x4A, 0x00, 0x00, 0x90, 0x2E, 0x4E, 0x00, 0xFF, 0x7F, 0x03, 0x05, 0x0F,
	0x0E, 0x00, 0x90, 0x48, 0x53, 0x00, 0x90, 0x3F, 0x4E, 0x78, 0x80, 0x2E,
	0x00, 0x78, 0x80, 0x3F, 0x00, 0x00, 0x80, 0x48, 0x00, 0x00, 0x90, 0x2E,
	0x4E, 0x00, 0xFF, 0x7F, 0x03, 0x05, 0x0F, 0x0E, 0x00, 0x90, 0x46, 0x53,
	0x00, 0x90, 0x41, 0x4E, 0x00, 0x90, 0x3E, 0x4E, 0x78, 0x80, 0x2E, 0x00,
	0x78, 0x90, 0x2E, 0x4E, 0x00, 0xFF, 0x7F, 0x03, 0x05, 0x0F, 0x0E, 0x78,
	0x80, 0x2E, 0x00, 0x78, 0x90, 0x2E, 0x53, 0x00, 0xFF, 0x7F, 0x03, 0x05,
	0x0F, 0x0E, 0x78, 0x80, 0x2E, 0x00, 0x78, 0x90, 0x2E, 0x4C, 0x00, 0xFF,
	0x7F, 0x03, 0x05, 0x0F, 0x0E, 0x78, 0x80, 0x2E, 0x00, 0x78, 0x80, 0x3E,
	0x00, 0x00, 0x80, 0x41, 0x00, 0x00, 0x80, 0x46, 0x00, 0x00, 0x90, 0x2E,
	0x4E, 0x00, 0xFF, 0x7F, 0x03, 0x05, 0x0F, 0x0E, 0x00, 0x90, 0x3E, 0x53,
	0x00, 0x90, 0x41, 0x4E, 0x00, 0x90, 0x45, 0x4E, 0x78, 0x80, 0x2E, 0x00,
	0x78, 0x90, 0x2E, 0x59, 0x00, 0xFF, 0x7F, 0x03, 0x05, 0x0F, 0x0E, 0x78,
	0x80, 0x2E, 0x00, 0x78, 0x80, 0x45, 0x00, 0x00, 0x80, 0x41, 0x00, 0x00,
	0x80, 0x3E, 0x00, 0x00, 0x90, 0x2F, 0x4E, 0x00, 0x90, 0x3E, 0x4E, 0x00,
	0x90, 0x41, 0x4E, 0x00, 0x90, 0x44, 0x4E, 0x81, 0x70, 0x80, 0x2F, 0x00,
	0x00, 0x90, 0x2F, 0x4E, 0x81, 0x70, 0x80, 0x2F, 0x00, 0x00, 0x90, 0x2F,
	0x4E, 0x81, 0x70, 0x80, 0x2F, 0x00, 0x00, 0x90, 0x2F, 0x4E, 0x81, 0x70,
	0x80, 0x44, 0x00, 0x00, 0x80, 0x41, 0x00, 0x00, 0x80, 0x3E, 0x00, 0x00,
	0x80, 0x2F, 0x00, 0x00, 0x90, 0x2F, 0x4E, 0x00, 0x90, 0x3E, 0x4E, 0x00,
	0x90, 0x41, 0x4E, 0x00, 0x90, 0x44, 0x4E, 0x81, 0x70, 0x80, 0x2F, 0x00,
	0x00, 0x90, 0x2F, 0x4E, 0x81, 0x70, 0x80, 0x44, 0x00, 0x00, 0x80, 0x41,
	0x00, 0x00, 0x80, 0x3E, 0x00, 0x00, 0x80, 0x2F, 0x00, 0x00, 0x90, 0x3C,
	0x4E, 0x00, 0x90, 0x40, 0x4E, 0x00, 0x90, 0x45, 0x4E, 0x00, 0x90, 0x30,
	0x4E, 0x87, 0x40, 0x80, 0x30, 0x00, 0x00, 0x80, 0x45, 0x00, 0x00, 0x80,
	0x40, 0x00, 0x00, 0x80, 0x3C, 0x00, 0x83, 0x60, 0x90, 0x47, 0x4E, 0x00,
	0xFF, 0x7F, 0x03, 0x05, 0x0F, 0x0E, 0x00, 0x90, 0x40, 0x4E, 0x00, 0xFF,
	0x7F, 0x03, 0x05, 0x0F, 0x0E, 0x00, 0x90, 0x41, 0x4E, 0x00, 0xFF, 0x7F,
	0x03, 0x05, 0x0F, 0x0E, 0x00, 0x90, 0x34, 0x4E, 0x00, 0xFF, 0x7F, 0x03,
	0x05, 0x0F, 0x0E, 0x00, 0x90, 0x38, 0x4E, 0x00, 0xFF, 0x7F, 0x03, 0x05,
	0x0F, 0x0E, 0x81, 0x70, 0x80, 0x38, 0x00, 0x00, 0x80, 0x34, 0x00, 0x00,
	0x80, 0x41, 0x00, 0x00, 0x80, 0x40, 0x00, 0x00, 0x80, 0x47, 0x00, 0x89,
	0x30, 0x90, 0x3C, 0x4E, 0x81, 0x20, 0x80, 0x3C, 0x00, 0x00, 0x90, 0x3C,
	0x4E, 0x81, 0x20, 0x80, 0x3C, 0x00, 0x00, 0x90, 0x40, 0x4E, 0x81, 0x20,
	0x80, 0x40, 0x00, 0x00, 0x90, 0x45, 0x4E, 0x81, 0x20, 0x80, 0x45, 0x00,
	0x00, 0x90, 0x48, 0x4E, 0x81, 0x20, 0x80, 0x48, 0x00, 0x00, 0x90, 0x4C,
	0x4E, 0x81, 0x20, 0x80, 0x4C, 0x00, 0x00, 0x90, 0x4A, 0x4E, 0x00, 0x90,
	0x39, 0x4E, 0x00, 0x90, 0x3C, 0x4E, 0x00, 0x90, 0x40, 0x4E, 0x00, 0xFF,
	0x7F, 0x04, 0x05, 0x0F, 0x0F, 0x08, 0x81, 0x20, 0x80, 0x4A, 0x00, 0x00,
	0x90, 0x48, 0x4E, 0x81, 0x20, 0x80, 0x48, 0x00, 0x00, 0x90, 0x47, 0x4E,
	0x81, 0x20, 0x80, 0x40, 0x00, 0x00, 0x80, 0x3C, 0x00, 0x00, 0x80, 0x39,
	0x00, 0x00, 0x80, 0x47, 0x00, 0x00, 0x90, 0x45, 0x4E, 0x00, 0x90, 0x40,
	0x4E, 0x00, 0xFF, 0x7F, 0x04, 0x05, 0x0F, 0x0F, 0x08, 0x00, 0x90, 0x3C,
	0x4E, 0x00, 0x90, 0x39, 0x4E, 0x81, 0x20, 0x80, 0x45, 0x00, 0x00, 0x90,
	0x48, 0x4E, 0x81, 0x20, 0x80, 0x48, 0x00, 0x00, 0x90, 0x4C, 0x4E, 0x81,
	0x20, 0x80, 0x39, 0x00, 0x00, 0x80, 0x3C, 0x00, 0x00, 0x80, 0x40, 0x00,
	0x00, 0x80, 0x4C, 0x00, 0x00, 0x90, 0x51, 0x4E, 0x81, 0x20, 0x80, 0x51,
	0x00, 0x00, 0x90, 0x54, 0x4E, 0x81, 0x20, 0x80, 0x54, 0x00, 0x00, 0x90,
	0x58, 0x4E, 0x81, 0x20, 0x80, 0x58, 0x00, 0x00, 0x90, 0x56, 0x4E, 0x00,
	0x90, 0x40, 0x4E, 0x00, 0xFF, 0x7F, 0x04, 0x05, 0x0F, 0x0F, 0x08, 0x00,
	0x90, 0x3C, 0x4E, 0x00, 0x90, 0x39, 0x4E, 0x81, 0x20, 0x80, 0x56, 0x00,
	0x00, 0x90, 0x54, 0x4E, 0x81, 0x20, 0x80, 0x54, 0x00, 0x00, 0x90, 0x53,
	0x4E, 0x81, 0x20, 0x80, 0x39, 0x00, 0x00, 0x80, 0x3C, 0x00, 0x00, 0x80,
	0x40, 0x00, 0x00, 0x80, 0x53, 0x00, 0x00, 0x90, 0x51, 0x4E, 0x00, 0x90,
	0x40, 0x4E, 0x00, 0xFF, 0x7F, 0x04, 0x05, 0x0F, 0x0F, 0x08, 0x00, 0x90,
	0x3C, 0x4E, 0x00, 0x90, 0x39, 0x4E, 0x81, 0x20, 0x80, 0x51, 0x00, 0x00,
	0x90, 0x54, 0x4E, 0x81, 0x20, 0x80, 0x54, 0x00, 0x00, 0x90, 0x58, 0x4E,
	0x81, 0x20, 0x80, 0x39, 0x00, 0x00, 0x80, 0x3C, 0x00, 0x00, 0x80, 0x40,
	0x00, 0x00, 0x80, 0x58, 0x00, 0x00, 0x90, 0x5D, 0x4E, 0x81, 0x20, 0x80,
	0x5D, 0x00, 0x00, 0x90, 0x60, 0x4E, 0x81, 0x20, 0x80, 0x60, 0x00, 0x00,
	0x90, 0x64, 0x4E, 0x81, 0x20, 0x80, 0x64, 0x00, 0x00, 0x90, 0x62, 0x4E,
	0x00, 0x90, 0x39, 0x4E, 0x00, 0x90, 0x3C, 0x4E, 0x00, 0x90, 0x40, 0x4E,
	0x00, 0xFF, 0x7F, 0x04, 0x05, 0x0F, 0x0F, 0x08, 0x81, 0x20, 0x80, 0x62,
	0x00, 0x00, 0x90, 0x60, 0x4E, 0x81, 0x20, 0x80, 0x60, 0x00, 0x00, 0x90,
	0x5F, 0x4E, 0x81, 0x20, 0x80, 0x40, 0x00, 0x00, 0x80, 0x3C, 0x00, 0x00,
	0x80, 0x39, 0x00, 0x00, 0x80, 0x5F, 0x00, 0x00, 0x90, 0x5E, 0x4E, 0x00,
	0x90, 0x40, 0x4E, 0x00, 0xFF, 0x7F, 0x04, 0x05, 0x0F, 0x0F, 0x08, 0x00,
	0x90, 0x3C, 0x4E, 0x00, 0x90, 0x39, 0x4E, 0x81, 0x20, 0x80, 0x5E, 0x00,
	0x00, 0x90, 0x5D, 0x4E, 0x81, 0x20, 0x80, 0x5D, 0x00, 0x00, 0x90, 0x5C,
	0x4E, 0x81, 0x20, 0x80, 0x39, 0x00, 0x00, 0x80, 0x3C, 0x00, 0x00, 0x80,
	0x40, 0x00, 0x00, 0x80, 0x5C, 0x00, 0x00, 0x90, 0x5B, 0x4E, 0x81, 0x20,
	0x80, 0x5B, 0x00, 0x00, 0x90, 0x5A, 0x4E, 0x81, 0x20, 0x80, 0x5A, 0x00,
	0x00, 0x90, 0x59, 0x4E, 0x81, 0x20, 0x80, 0x59, 0x00, 0x00, 0x90, 0x58,
	0x4E, 0x81, 0x20, 0x80, 0x58, 0x00, 0x00, 0x90, 0x57, 0x4E, 0x81, 0x20,
	0x80, 0x57, 0x00, 0x00, 0x90, 0x56, 0x4E, 0x81, 0x20, 0x80, 0x56, 0x00,
	0x00, 0x90, 0x55, 0x4E, 0x81, 0x20, 0x80, 0x55, 0x00, 0x00, 0x90, 0x54,
	0x4E, 0x81, 0x20, 0x80, 0x54, 0x00, 0x00, 0x90, 0x53, 0x4E, 0x81, 0x20,
	0x80, 0x53, 0x00, 0x00, 0x90, 0x52, 0x4E, 0x81, 0x20, 0x80, 0x52, 0x00,
	0x00, 0x90, 0x51, 0x4E, 0x81, 0x20, 0x80, 0x51, 0x00, 0x00, 0x90, 0x50,
	0x4E, 0x81, 0x20, 0x80, 0x50, 0x00, 0x00, 0x90, 0x4F, 0x4E, 0x81, 0x20,
	0x80, 0x4F, 0x00, 0x00, 0x90, 0x4E, 0x4E, 0x81, 0x20, 0x80, 0x4E, 0x00,
	0x00, 0x90, 0x4D, 0x4E, 0x81, 0x20, 0x80, 0x4D, 0x00, 0x00, 0x90, 0x4C,
	0x4E, 0x81, 0x70, 0x80, 0x4C, 0x00, 0x00, 0x90, 0x4B, 0x4E, 0x81, 0x70,
	0x80, 0x4B, 0x00, 0x00, 0x90, 0x4C, 0x53, 0x81, 0x70, 0x80, 0x4C, 0x00,
	0x00, 0x90, 0x47, 0x4E, 0x81, 0x70, 0x80, 0x47, 0x00, 0x00, 0x90, 0x4A,
	0x4E, 0x81, 0x70, 0x80, 0x4A, 0x00, 0x00, 0x90, 0x48, 0x4E, 0x81, 0x70,
	0x80, 0x48, 0x00, 0x00, 0x90, 0x45, 0x53, 0x00, 0x90, 0x2D, 0x46, 0x81,
	0x70, 0x80, 0x2D, 0x00, 0x00, 0x90, 0x34, 0x4C, 0x81, 0x70, 0x80, 0x34,
	0x00, 0x00, 0x80, 0x45, 0x00, 0x00, 0x90, 0x39, 0x4E, 0x81, 0x70, 0x80,
	0x39, 0x00, 0x00, 0x90, 0x3C, 0x46, 0x81, 0x70, 0x80, 0x3C, 0x00, 0x00,
	0x90, 0x40, 0x4C, 0x81, 0x70, 0x80, 0x40, 0x00, 0x00, 0x90, 0x45, 0x53,
	0x81, 0x70, 0x80, 0x45, 0x00, 0x00, 0x90, 0x47, 0x59, 0x00, 0x90, 0x28,
	0x4C, 0x81, 0x70, 0x80, 0x28, 0x00, 0x00, 0x90, 0x34, 0x4E, 0x81, 0x70,
	0x80, 0x34, 0x00, 0x00, 0x80, 0x47, 0x00, 0x00, 0x90, 0x38, 0x4E, 0x81,
	0x70, 0x80, 0x38, 0x00, 0x00, 0x90, 0x40, 0x4E, 0x81, 0x70, 0x80, 0x40,
	0x00, 0x00, 0x90, 0x44, 0x46, 0x81, 0x70, 0x80, 0x44, 0x00, 0x00, 0x90,
	0x47, 0x46, 0x81, 0x70, 0x80, 0x47, 0x00, 0x00, 0x90, 0x48, 0x4E, 0x00,
	0x90, 0x2D, 0x53, 0x81, 0x70, 0x80, 0x2D, 0x00, 0x00, 0x90, 0x34, 0x4E,
	0x81, 0x70, 0x80, 0x34, 0x00, 0x00, 0x80, 0x48, 0x00, 0x00, 0x90, 0x39,
	0x4E, 0x81, 0x70, 0x80, 0x39, 0x00, 0x00, 0x90, 0x40, 0x4E, 0x00, 0xFF,
	0x7F, 0x04, 0x05, 0x0F, 0x0F, 0x10, 0x81, 0x70, 0x80, 0x40, 0x00, 0x00,
	0x90, 0x4C, 0x4E, 0x81, 0x70, 0x80, 0x4C, 0x00, 0x00, 0x90, 0x4B, 0x4E,
	0x81, 0x70, 0x80, 0x4B, 0x00, 0x00, 0x90, 0x4C, 0x53, 0x81, 0x70, 0x80,
	0x4C, 0x00, 0x00, 0x90, 0x4B, 0x4E, 0x81, 0x70, 0x80, 0x4B, 0x00, 0x00,
	0x90, 0x4C, 0x53, 0x81, 0x70, 0x80, 0x4C, 0x00, 0x00, 0x90, 0x47, 0x4E,
	0x81, 0x70, 0x80, 0x47, 0x00, 0x00, 0x90, 0x4A, 0x46, 0x81, 0x70, 0x80,
	0x4A, 0x00, 0x00, 0x90, 0x48, 0x4E, 0x81, 0x70, 0x80, 0x48, 0x00, 0x00,
	0x90, 0x45, 0x4E, 0x00, 0x90, 0x2D, 0x46, 0x81, 0x70, 0x80, 0x2D, 0x00,
	0x00, 0x90, 0x34, 0x4C, 0x81, 0x70, 0x80, 0x34, 0x00, 0x00, 0x80, 0x45,
	0x00, 0x00, 0x90, 0x39, 0x4C, 0x81, 0x70, 0x80, 0x39, 0x00, 0x00, 0x90,
	0x3C, 0x53, 0x81, 0x70, 0x80, 0x3C, 0x00, 0x00, 0x90, 0x40, 0x53, 0x81,
	0x70, 0x80, 0x40, 0x00, 0x00, 0x90, 0x45, 0x4C, 0x81, 0x70, 0x80, 0x45,
	0x00, 0x00, 0x90, 0x47, 0x53, 0x00, 0x90, 0x28, 0x40, 0x81, 0x70, 0x80,
	0x28, 0x00, 0x00, 0x90, 0x34, 0x46, 0x81, 0x70, 0x80, 0x34, 0x00, 0x00,
	0x80, 0x47, 0x00, 0x00, 0x90, 0x38, 0x4C, 0x81, 0x70, 0x80, 0x38, 0x00,
	0x00, 0x90, 0x40, 0x53, 0x81, 0x70, 0x80, 0x40, 0x00, 0x00, 0x90, 0x48,
	0x4E, 0x81, 0x70, 0x80, 0x48, 0x00, 0x00, 0x90, 0x47, 0x4E, 0x81, 0x70,
	0x80, 0x47, 0x00, 0x00, 0x90, 0x45, 0x4E, 0x00, 0x90, 0x2D, 0x4E, 0x81,
	0x70, 0x80, 0x2D, 0x00, 0x00, 0x90, 0x34, 0x4E, 0x81, 0x70, 0x80, 0x34,
	0x00, 0x00, 0x80, 0x45, 0x00, 0x00, 0x90, 0x39, 0x4E, 0x81, 0x70, 0x80,
	0x39, 0x00, 0x00, 0x90, 0x47, 0x4E, 0x81, 0x70, 0x80, 0x47, 0x00, 0x00,
	0x90, 0x48, 0x4E, 0x81, 0x70, 0x80, 0x48, 0x00, 0x00, 0x90, 0x4A, 0x4E,
	0x81, 0x70, 0x80, 0x4A, 0x00, 0x00, 0x90, 0x4C, 0x4E, 0x00, 0xFF, 0x7F,
	0x04, 0x05, 0x0F, 0x0F, 0x10, 0x00, 0x90, 0x30, 0x46, 0x81, 0x70, 0x80,
	0x30, 0x00, 0x00, 0x90, 0x37, 0x4E, 0x81, 0x70, 0x80, 0x37, 0x00, 0x00,
	0x90, 0x3C, 0x4E, 0x00, 0xFF, 0x7F, 0x04, 0x05, 0x0F, 0x0F, 0x08, 0x81,
	0x70, 0x80, 0x4C, 0x00, 0x00, 0x80, 0x3C, 0x00, 0x00, 0x90, 0x43, 0x4E,
	0x81, 0x70, 0x80, 0x43, 0x00, 0x00, 0x90, 0x4D, 0x4E, 0x81, 0x70, 0x80,
	0x4D, 0x00, 0x00, 0x90, 0x4C, 0x4E, 0x81, 0x70, 0x80, 0x4C, 0x00, 0x00,
	0x90, 0x4A, 0x4E, 0x00, 0xFF, 0x7F, 0x04, 0x05, 0x0F, 0x0F, 0x10, 0x00,
	0x90, 0x2B, 0x40, 0x81, 0x70, 0x80, 0x2B, 0x00, 0x00, 0x90, 0x37, 0x4E,
	0x81, 0x70, 0x80, 0x37, 0x00, 0x00, 0x90, 0x3B, 0x4E, 0x81, 0x70, 0x80,
	0x4A, 0x00, 0x00, 0x80, 0x3B, 0x00, 0x00, 0x90, 0x41, 0x4E, 0x81, 0x70,
	0x80, 0x41, 0x00, 0x00, 0x90, 0x4C, 0x4E, 0x81, 0x70, 0x80, 0x4C, 0x00,
	0x00, 0x90, 0x4A, 0x4E, 0x81, 0x70, 0x80, 0x4A, 0x00, 0x00, 0x90, 0x48,
	0x4E, 0x00, 0x90, 0x2D, 0x46, 0x81, 0x70, 0x80, 0x2D, 0x00, 0x00, 0x90,
	0x34, 0x4E, 0x81, 0x70, 0x80, 0x34, 0x00, 0x00, 0x90, 0x39, 0x4E, 0x81,
	0x70, 0x80, 0x48, 0x00, 0x00, 0x80, 0x39, 0x00, 0x00, 0x90, 0x40, 0x4E,
	0x81, 0x70, 0x80, 0x40, 0x00, 0x00, 0x90, 0x4A, 0x4E, 0x81, 0x70, 0x80,
	0x4A, 0x00, 0x00, 0x90, 0x48, 0x4E, 0x81, 0x70, 0x80, 0x48, 0x00, 0x00,
	0x90, 0x47, 0x4C, 0x00, 0x90, 0x28, 0x40, 0x81, 0x70, 0x80, 0x28, 0x00,
	0x00, 0x90, 0x34, 0x4C, 0x81, 0x70, 0x80, 0x34, 0x00, 0x00, 0x80, 0x47,
	0x00, 0x00, 0x90, 0x40, 0x40, 0x00, 0xFF, 0x7F, 0x04, 0x05, 0x0F, 0x0F,
	0x08, 0x81, 0x70, 0x80, 0x40, 0x00, 0x00, 0x90, 0x40, 0x46, 0x81, 0x70,
	0x80, 0x40, 0x00, 0x00, 0x90, 0x4C, 0x53, 0x81, 0x70, 0x80, 0x4C, 0x00,
	0x00, 0x90, 0x40, 0x4C, 0x81, 0x70, 0x80, 0x40, 0x00, 0x00, 0x90, 0x4C,
	0x4C, 0x81, 0x70, 0x80, 0x4C, 0x00, 0x00, 0x90, 0x4C, 0x46, 0x81, 0x70,
	0x80, 0x4C, 0x00, 0x00, 0x90, 0x58, 0x4C, 0x81, 0x70, 0x80, 0x58, 0x00,
	0x00, 0x90, 0x4B, 0x4C, 0x81, 0x70, 0x80, 0x4B, 0x00, 0x00, 0x90, 0x4C,
	0x46, 0x81, 0x70, 0x80, 0x4C, 0x00, 0x00, 0x90, 0x4B, 0x4C, 0x81, 0x70,
	0x80, 0x4B, 0x00, 0x00, 0x90, 0x4C, 0x4C, 0x81, 0x70, 0x80, 0x4C, 0x00,
	0x00, 0x90, 0x4B, 0x46, 0x81, 0x70, 0x80, 0x4B, 0x00, 0x00, 0x90, 0x4C,
	0x4C, 0x81, 0x70, 0x80, 0x4C, 0x00, 0x00, 0x90, 0x47, 0x4C, 0x81, 0x70,
	0x80, 0x47, 0x00, 0x00, 0x90, 0x4A, 0x4C, 0x81, 0x70, 0x80, 0x4A, 0x00,
	0x00, 0x90, 0x48, 0x4C, 0x81, 0x70, 0x80, 0x48, 0x00, 0x00, 0x90, 0x45,
	0x4C, 0x00, 0x90, 0x2D, 0x40, 0x81, 0x70, 0x80, 0x2D, 0x00, 0x00, 0x90,
	0x34, 0x46, 0x81, 0x70, 0x80, 0x34, 0x00, 0x00, 0x80, 0x45, 0x00, 0x00,
	0x90, 0x39, 0x4C, 0x81, 0x70, 0x80, 0x39, 0x00, 0x00, 0x90, 0x3C, 0x4C,
	0x81, 0x70, 0x80, 0x3C, 0x00, 0x00, 0x90, 0x40, 0x4C, 0x81, 0x70, 0x80,
	0x40, 0x00, 0x00, 0x90, 0x45, 0x4C, 0x81, 0x70, 0x80, 0x45, 0x00, 0x00,
	0x90, 0x47, 0x4C, 0x00, 0x90, 0x28, 0x40, 0x81, 0x70, 0x80, 0x28, 0x00,
	0x00, 0x90, 0x34, 0x46, 0x81, 0x70, 0x80, 0x34, 0x00, 0x00, 0x80, 0x47,
	0x00, 0x00, 0x90, 0x38, 0x46, 0x81, 0x70, 0x80, 0x38, 0x00, 0x00, 0x90,
	0x40, 0x46, 0x81, 0x70, 0x80, 0x40, 0x00, 0x00, 0x90, 0x44, 0x4C, 0x81,
	0x70, 0x80, 0x44, 0x00, 0x00, 0x90, 0x47, 0x4C, 0x81, 0x70, 0x80, 0x47,
	0x00, 0x00, 0x90, 0x48, 0x4C, 0x00, 0x90, 0x2D, 0x4C, 0x81, 0x70, 0x80,
	0x2D, 0x00, 0x00, 0x90, 0x34, 0x4C, 0x81, 0x70, 0x80, 0x34, 0x00, 0x00,
	0x80, 0x48, 0x00, 0x00, 0x90, 0x39, 0x4C, 0x81, 0x70, 0x80, 0x39, 0x00,
	0x00, 0x90, 0x40, 0x4C, 0x81, 0x70, 0x80, 0x40, 0x00, 0x00, 0x90, 0x4C,
	0x4C, 0x81, 0x70, 0x80, 0x4C, 0x00, 0x00, 0x90, 0x4B, 0x4C, 0x81, 0x70,
	0x80, 0x4B, 0x00, 0x00, 0x90, 0x4C, 0x4C, 0x81, 0x70, 0x80, 0x4C, 0x00,
	0x00, 0x90, 0x4B, 0x4C, 0x81, 0x70, 0x80, 0x4B, 0x00, 0x00, 0x90, 0x4C,
	0x4C, 0x81, 0x70, 0x80, 0x4C, 0x00, 0x00, 0x90, 0x47, 0x4C, 0x81, 0x70,
	0x80, 0x47, 0x00, 0x00, 0x90, 0x4A, 0x4C, 0x81, 0x70, 0x80, 0x4A, 0x00,
	0x00, 0x90, 0x48, 0x4C, 0x81, 0x70, 0x80, 0x48, 0x00, 0x00, 0x90, 0x45,
	0x4C, 0x00, 0x90, 0x2D, 0x4C, 0x81, 0x70, 0x80, 0x2D, 0x00, 0x00, 0x90,
	0x34, 0x4C, 0x81, 0x70, 0x80, 0x34, 0x00, 0x00, 0x80, 0x45, 0x00, 0x00,
	0x90, 0x39, 0x4C, 0x81, 0x70, 0x80, 0x39, 0x00, 0x00, 0x90, 0x3C, 0x4C,
	0x81, 0x70, 0x80, 0x3C, 0x00, 0x00, 0x90, 0x40, 0x4C, 0x81, 0x70, 0x80,
	0x40, 0x00, 0x00, 0x90, 0x45, 0x46, 0x81, 0x70, 0x80, 0x45, 0x00, 0x00,
	0x90, 0x47, 0x40, 0x00, 0x90, 0x28, 0x40, 0x81, 0x70, 0x80, 0x28, 0x00,
	0x00, 0x90, 0x34, 0x40, 0x81, 0x70, 0x80, 0x34, 0x00, 0x00, 0x80, 0x47,
	0x00, 0x00, 0x90, 0x38, 0x39, 0x81, 0x70, 0x80, 0x38, 0x00, 0x00, 0x90,
	0x40, 0x33, 0x81, 0x70, 0x80, 0x40, 0x00, 0x00, 0x90, 0x48, 0x33, 0x81,
	0x70, 0x80, 0x48, 0x00, 0x00, 0x90, 0x47, 0x33, 0x81, 0x55, 0xB0, 0x40,
	0x7F, 0x1B, 0x80, 0x47, 0x00, 0x00, 0xFF, 0x7F, 0x03, 0x05, 0x0F, 0x0E,
	0x00, 0x90, 0x3C, 0x2D, 0x00, 0x90, 0x45, 0x2D, 0x00, 0x90, 0x2D, 0x2D,
	0x00, 0x90, 0x21, 0x2D, 0x8B, 0x20, 0x80, 0x2D, 0x00, 0x00, 0x80, 0x21,
	0x00, 0x00, 0x80, 0x3C, 0x00, 0x00, 0x80, 0x45, 0x00, 0x96, 0x20, 0xB0,
	0x40, 0x00, 0x20, 0xFF, 0x7F, 0x03, 0x05, 0x0F, 0x0A, 0x00, 0xFF, 0x2F,
	0x00, 0x4D, 0x54, 0x72, 0x6B, 0x00, 0x00, 0x00, 0x4C, 0x00, 0xFF, 0x7F,
	0x05, 0x05, 0x0F, 0x09, 0x00, 0x40, 0x00, 0xFF, 0x7F, 0x0F, 0x05, 0x0F,
	0x06, 0x47, 0x65, 0x6E, 0x65, 0x72, 0x61, 0x6C, 0x20, 0x4D, 0x49, 0x44,
	0x49, 0x00, 0xFF, 0x03, 0x18, 0x68, 0x74, 0x74, 0x70, 0x3A, 0x2F, 0x2F,
	0x77, 0x77, 0x77, 0x2E, 0x66, 0x6F, 0x72, 0x65, 0x6C, 0x69, 0x73, 0x65,
	0x2E, 0x63, 0x6F, 0x6D, 0x2F, 0x00, 0xFF, 0x58, 0x04, 0x03, 0x03, 0x0C,
	0x08, 0x00, 0xC1, 0x00, 0x00, 0xFF, 0x20, 0x01, 0x01, 0x00, 0xFF, 0x2F,
	0x00, 0x4D, 0x54, 0x72, 0x6B, 0x00, 0x00, 0x00, 0x54, 0x00, 0xFF, 0x7F,
	0x05, 0x05, 0x0F, 0x09, 0x00, 0x40, 0x00, 0xFF, 0x7F, 0x0F, 0x05, 0x0F,
	0x06, 0x47, 0x65, 0x6E, 0x65, 0x72, 0x61, 0x6C, 0x20, 0x4D, 0x49, 0x44,
	0x49, 0x00, 0xFF, 0x03, 0x20, 0x43, 0x6F, 0x6D, 0x70, 0x6F, 0x73, 0x65,
	0x64, 0x20, 0x62, 0x79, 0x20, 0x4C, 0x75, 0x64, 0x77, 0x69, 0x67, 0x20,
	0x76, 0x61, 0x6E, 0x20, 0x42, 0x65, 0x65, 0x74, 0x68, 0x6F, 0x76, 0x65,
	0x6E, 0x00, 0xFF, 0x58, 0x04, 0x03, 0x03, 0x0C, 0x08, 0x00, 0xC2, 0x00,
	0x00, 0xFF, 0x20, 0x01, 0x02, 0x00, 0xFF, 0x2F, 0x00
};
